<svg width="61" height="60" viewBox="0 0 61 60" fill="none" xmlns="http://www.w3.org/2000/svg">
<g clip-path="url(#clip0_20_933)">
<path d="M50.8333 50.9355H44V47.9139H48.3333V46.3312H44V44.1729C43.8333 43.1657 44.6667 42.3024 45.8333 42.1585C46 42.1585 46 42.1585 46.1667 42.1585C47.1667 42.1585 48.1667 42.734 48.3333 43.5973V43.7412L50 43.0218H50.1667V42.8779C49.3333 41.0074 47 40.0002 44.8333 40.7196C43.1667 41.2952 42.1667 42.5901 42.1667 44.1729V46.3312H40.8333V47.9139H42.1667V50.9355H40.5V52.6621H51L50.8333 50.9355Z" fill="#BF996F"/>
<path d="M60.5 10.0719C61 7.6259 59.1667 5.17986 56.3333 4.7482C56.3333 4.7482 56.3333 4.7482 56.1667 4.7482C45 3.02158 34.6667 1.58273 24.6667 0.143885C24.3333 0 24 0 23.5 0C20.8333 0 18.5 1.72662 18.3333 4.02878C18.1667 4.60432 18.1667 5.03597 18 5.61151L17.8333 6.90647H6.33333C3.16667 6.76259 0.5 9.06475 0.5 11.7986V11.9424C0.5 25.8993 0.5 40.2878 0.5 54.8201C0.5 57.554 3 59.8561 6.16667 60H6.33333H37.3333C38.6667 60 39.8333 59.5683 40.8333 58.8489C41.1667 58.5611 41.8333 58.4173 42.3333 58.5611C44.3333 58.9928 46.3333 58.9928 48.3333 58.5611C53.1667 57.8417 57 54.6763 58.5 50.6475C60 46.6187 58.8333 42.1583 55.5 39.1367C55.1667 38.8489 55 38.4173 55 37.9856C56.8333 28.777 58.6667 19.2806 60.5 10.0719ZM53.5 36.8345V37.1223L53.1667 37.2662H53L51.6667 36.8345H51.5C50.5 36.4029 49.5 36.1151 48.3333 35.9712C47.3333 35.8273 46.1667 35.6834 45.1667 35.6834L43.6667 35.5396H43.3333V12.2302C43.5 9.78417 41.6667 7.6259 39 7.05036C38.3333 6.90647 37.6667 6.76259 37 6.76259H19.5L19.6667 6.33094L19.8333 5.32374C20 4.60432 20.1667 3.88489 20.3333 3.30935C20.6667 2.30216 22.1667 1.43885 23.6667 1.43885C23.8333 1.43885 24.1667 1.43885 24.3333 1.43885L47.1667 4.7482L47.8333 4.89209L55.3333 6.04316C56.5 6.18705 57.5 6.6187 58.1667 7.33813C58.8333 8.20144 59 9.20863 58.6667 10.0719L53.5 36.8345ZM41.5 12.3741V32.6619C41.5 33.5252 41.5 34.5324 41.5 35.3957C41.5 35.8273 41.1667 36.1151 40.8333 36.259C35.8333 37.8417 32.3333 41.8705 32.1667 46.4748C31.6667 50.9352 34.3333 55.2518 38.8333 57.4101L39.6667 58.1295L38.8333 58.2734H38.3333C38 58.2734 37.6667 58.4173 37.1667 58.4173H6.5C4.16667 58.4173 2.33333 56.9784 2.33333 54.964C2.33333 54.8201 2.33333 54.8201 2.33333 54.6763V12.0863C2.16667 10.0719 3.83333 8.48921 6.16667 8.34532C6.33333 8.34532 6.5 8.34532 6.5 8.34532H37.1667C39.5 8.34532 41.3333 9.78417 41.5 11.7986C41.5 11.9424 41.5 12.0863 41.5 12.3741ZM45.6667 37.1223C52.1667 37.1223 57.6667 41.5827 57.6667 47.3381C57.6667 52.9496 52.5 57.6978 45.8333 57.6978C39.3333 57.6978 33.8333 53.2374 33.8333 47.482C33.8333 47.3381 33.8333 47.3381 33.8333 47.1942C33.8333 41.5827 39 37.1223 45.3333 36.9784C45.5 37.1223 45.5 37.1223 45.6667 37.1223Z" fill="#BF996F"/>
<path d="M18.3335 23.1654V19.4244C18.3335 18.8489 18.0002 18.4172 17.5002 18.4172C17.0002 18.4172 16.6668 18.5611 16.6668 19.4244C16.6668 20.2877 16.6668 24.3165 16.6668 25.0359H13.0002V17.5539C13.0002 16.9784 12.6668 16.5467 12.1668 16.5467C11.6668 16.5467 11.3335 16.6906 11.3335 17.2661C11.3335 18.705 11.3335 24.0287 11.3335 24.892H8.50016V12.9496C8.50016 12.0863 8.00016 11.9424 7.66683 11.9424C7.3335 11.9424 6.8335 12.374 6.8335 12.9496V25.6114C6.8335 26.3309 7.16683 26.6186 8.00016 26.6186H26.8335C27.3335 26.6186 28.0002 26.4748 28.0002 25.8992C28.0002 25.6114 27.8335 25.3237 27.5002 25.1798C27.3335 25.0359 27.1668 25.0359 26.8335 25.0359H23.8335V22.3021C23.8335 21.4388 23.3335 21.2949 23.0002 21.2949C22.6668 21.2949 22.1668 21.4388 22.1668 22.3021V24.892H18.5002V23.1654H18.3335Z" fill="#BF996F"/>
<path d="M8.33317 31.0791C7.83317 31.223 7.6665 31.6546 7.6665 31.9424C7.83317 32.2302 7.99984 32.518 8.49984 32.518C8.6665 32.518 8.83317 32.518 8.99984 32.518H35.3332C35.8332 32.518 36.1665 32.2302 36.1665 31.7985C36.1665 31.3669 35.8332 31.0791 35.3332 31.0791C35.1665 31.0791 34.9998 31.0791 34.6665 31.0791H9.1665C8.83317 31.0791 8.49984 31.0791 8.33317 31.0791Z" fill="#BF996F"/>
<path d="M26.6665 38.561H9.1665C8.83317 38.561 8.6665 38.561 8.33317 38.561C7.99984 38.561 7.6665 38.9927 7.6665 39.2805C7.6665 39.5682 7.99984 39.9999 8.33317 39.9999C8.49984 39.9999 8.6665 39.9999 8.83317 39.9999H26.8332C28.1665 39.9999 28.1665 39.4243 28.1665 39.2805C28.1665 39.1366 28.1665 38.561 26.6665 38.561Z" fill="#BF996F"/>
<path d="M26.6668 53.813H13.3335H8.8335C8.50016 53.813 8.00016 53.9569 7.8335 54.2446C7.8335 54.3885 7.8335 54.6763 7.8335 54.8202C8.16683 55.1079 8.50016 55.2518 9.00016 55.2518H19.5002H26.8335C27.1668 55.2518 27.5002 55.108 27.8335 54.9641C28.0002 54.8202 28.0002 54.6763 28.0002 54.5324C28.0002 54.1008 27.5002 53.813 26.6668 53.813Z" fill="#BF996F"/>
<path d="M8.49984 47.7699C8.6665 47.7699 8.83317 47.7699 8.99984 47.7699H23.9998C24.3332 47.7699 24.4998 47.7699 24.8332 47.7699C25.1665 47.7699 25.3332 47.626 25.4998 47.3383C25.6665 47.1944 25.6665 46.9066 25.4998 46.7627C25.3332 46.4749 24.9998 46.3311 24.4998 46.3311H9.83317H8.49984C7.99984 46.3311 7.6665 46.6188 7.6665 47.0505C7.6665 47.3382 7.99984 47.626 8.49984 47.7699Z" fill="#BF996F"/>
</g>
<defs>
<clipPath id="clip0_20_933">
<rect width="60" height="60" fill="white" transform="translate(0.5)"/>
</clipPath>
</defs>
</svg>
