<svg width="61" height="60" viewBox="0 0 61 60" fill="none" xmlns="http://www.w3.org/2000/svg">
<g clip-path="url(#clip0_20_964)">
<path fill-rule="evenodd" clip-rule="evenodd" d="M53.8198 56.4706H11.4669V3.52938H39.7022V17.647H53.8198V56.4706ZM43.2316 4.25997L53.0892 14.1177H43.2316V4.26V4.25997ZM55.7998 11.8377L45.5116 1.54938C44.5092 0.550625 43.1787 0 41.7669 0H7.9375V60H57.3492V15.5823C57.3492 14.1706 56.7987 12.84 55.7998 11.8377L55.7998 11.8377ZM18.5257 38.8235H43.2316V35.2942H18.5257V38.8235ZM18.5257 24.7059H46.761V21.1765H18.5257V24.7059ZM18.5257 45.8823H32.6434V42.3529H18.5257V45.8823ZM18.5257 31.7647H39.7022V28.2353H18.5257V31.7647ZM18.5257 17.6471H32.6434V14.1177H18.5257V17.6471Z" fill="#BF996F"/>
</g>
<defs>
<clipPath id="clip0_20_964">
<rect width="60" height="60" fill="white" transform="translate(0.5)"/>
</clipPath>
</defs>
</svg>
