<svg width="61" height="60" viewBox="0 0 61 60" fill="none" xmlns="http://www.w3.org/2000/svg">
<g clip-path="url(#clip0_20_942)">
<path d="M13.5 14C14.1 14 14.5 13.6 14.5 13V2H50.5V16H52.5V1C52.5 0.4 52.1 0 51.5 0H13.5C13.4 0 13.3 0 13.2 0.1H13.1C13 0.2 12.9 0.2 12.8 0.3L0.8 12.3C0.7 12.4 0.7 12.5 0.6 12.6V12.7C0.6 12.8 0.5 12.9 0.5 13V60H2.5V14H13.5ZM3.9 12L8.2 7.7L12.5 3.4V12H3.9Z" fill="#BF996F"/>
<path d="M60.1 29.5001L34.1 10.2001C33.7 9.9001 33.3 9.9001 32.9 10.2001L7.6 29.0001H7.5V29.1001L6.9 29.5001C6.6 29.7001 6.5 30.0001 6.5 30.3001V34.0001C6.5 34.6001 6.9 35.0001 7.5 35.0001H10.5V60.0001H12.5V35.0001H54.5V60.0001H56.5V35.0001H59.5C60.1 35.0001 60.5 34.6001 60.5 34.0001V30.3001C60.5 30.0001 60.4 29.7001 60.1 29.5001ZM58.5 33.0001H55.5H11.5H8.5V31.0001H48.5V29.0001H10.9L33.5 12.2001L58.5 30.8001V33.0001Z" fill="#BF996F"/>
<path d="M35.5 19H31.5V21H35.5V19Z" fill="#BF996F"/>
<path d="M38.5 23H28.5V25H38.5V23Z" fill="#BF996F"/>
<path d="M16.5 37H14.5V39H16.5V37Z" fill="#BF996F"/>
<path d="M20.5 37H18.5V39H20.5V37Z" fill="#BF996F"/>
<path d="M24.5 37H22.5V39H24.5V37Z" fill="#BF996F"/>
<path d="M28.5 37H26.5V39H28.5V37Z" fill="#BF996F"/>
<path d="M32.5 37H30.5V39H32.5V37Z" fill="#BF996F"/>
<path d="M36.5 37H34.5V39H36.5V37Z" fill="#BF996F"/>
<path d="M40.5 37H38.5V39H40.5V37Z" fill="#BF996F"/>
<path d="M44.5 37H42.5V39H44.5V37Z" fill="#BF996F"/>
<path d="M48.5 37H46.5V39H48.5V37Z" fill="#BF996F"/>
<path d="M52.5 37H50.5V39H52.5V37Z" fill="#BF996F"/>
<path d="M17.5 43H14.5V45H16.5V60H18.5V45H27.5V60H29.5V45H31.5V43H28.5H17.5Z" fill="#BF996F"/>
<path d="M25.5 51H23.5V53H25.5V51Z" fill="#BF996F"/>
<path d="M50.5 43H36.5C35.9 43 35.5 43.4 35.5 44V56H37.5V51H42.5V56H44.5V51H49.5V56H51.5V44C51.5 43.4 51.1 43 50.5 43ZM37.5 49V45H42.5V49H37.5ZM44.5 49V45H49.5V49H44.5Z" fill="#BF996F"/>
<path d="M47.5 5H41.5V7H47.5V5Z" fill="#BF996F"/>
<path d="M47.5 9H38.5V11H47.5V9Z" fill="#BF996F"/>
</g>
<defs>
<clipPath id="clip0_20_942">
<rect width="60" height="60" fill="white" transform="translate(0.5)"/>
</clipPath>
</defs>
</svg>
