<svg width="24" height="24" viewBox="0 0 24 24" fill="none" xmlns="http://www.w3.org/2000/svg">
<path d="M17.8472 12.7325L13.4306 10.7534L13.4184 10.7478C13.1892 10.6498 12.939 10.6104 12.6907 10.6333C12.4424 10.6562 12.2037 10.7407 11.9963 10.8791C11.9718 10.8952 11.9484 10.9127 11.9259 10.9316L9.64407 12.8769C8.19845 12.1747 6.70595 10.6934 6.00376 9.26657L7.95188 6.95001C7.97063 6.92657 7.98845 6.90314 8.00532 6.87782C8.14072 6.67092 8.22287 6.43375 8.24446 6.18742C8.26605 5.9411 8.22641 5.69325 8.12907 5.46595V5.4547L6.14438 1.03064C6.0157 0.733696 5.79444 0.486337 5.51362 0.325484C5.2328 0.164631 4.9075 0.0989114 4.58626 0.138135C3.31592 0.305298 2.14986 0.929168 1.30588 1.89322C0.461903 2.85728 -0.00228837 4.0956 8.4831e-06 5.37689C8.4831e-06 12.8206 6.05626 18.8769 13.5 18.8769C14.7813 18.8792 16.0196 18.415 16.9837 17.571C17.9477 16.727 18.5716 15.561 18.7388 14.2906C18.7781 13.9695 18.7125 13.6443 18.5518 13.3635C18.3911 13.0827 18.144 12.8613 17.8472 12.7325ZM13.5 17.3769C10.3185 17.3734 7.26825 16.108 5.01856 13.8583C2.76888 11.6086 1.50348 8.55842 1.50001 5.37689C1.49648 4.46141 1.82631 3.57594 2.42789 2.88586C3.02947 2.19578 3.86167 1.74826 4.76907 1.62689C4.7687 1.63063 4.7687 1.63439 4.76907 1.63814L6.73782 6.04439L4.80001 8.36376C4.78034 8.38639 4.76247 8.41053 4.74657 8.43595C4.60549 8.65243 4.52273 8.90169 4.5063 9.15957C4.48988 9.41744 4.54035 9.67519 4.65282 9.90782C5.5022 11.645 7.25251 13.3822 9.00845 14.2306C9.24279 14.3421 9.50203 14.3908 9.76083 14.372C10.0196 14.3533 10.2692 14.2678 10.485 14.1238C10.5091 14.1075 10.5322 14.09 10.5544 14.0713L12.8334 12.1269L17.2397 14.1003C17.2397 14.1003 17.2472 14.1003 17.25 14.1003C17.1301 15.009 16.6833 15.8429 15.9931 16.446C15.3028 17.049 14.4166 17.38 13.5 17.3769Z" fill="black"/>
</svg>
