<svg width="61" height="60" viewBox="0 0 61 60" fill="none" xmlns="http://www.w3.org/2000/svg">
<g clip-path="url(#clip0_20_902)">
<path d="M24.6396 52.3402V53.7586H16.1279V52.3402H17.5233V49.2196H16.407V47.8012H17.5233V45.6735C17.3837 43.8296 18.7791 42.2693 20.593 42.1274C20.7326 42.1274 20.8721 42.1274 20.8721 42.1274C22.2675 42.1274 23.6628 42.9785 24.0814 44.3969L22.8256 45.1062C22.5465 44.2551 21.8489 43.5459 20.8721 43.5459C19.8954 43.5459 19.0582 44.2551 18.9186 45.248C18.9186 45.3899 18.9186 45.3898 18.9186 45.5317V47.6594H22.5465V49.0778H18.9186V52.1984L24.6396 52.3402Z" fill="#BF996F"/>
<path d="M1.75581 60C0.77907 60 0.5 59.8582 0.5 58.8652V1.2766C0.5 0.141844 0.639535 0 1.75581 0H40.1279C41.1047 0 41.3837 0.141844 41.3837 1.13475V13.0496L41.9419 13.3333L42.6395 13.7589L46.5465 16.7376L53.8023 22.1277C54.0814 22.4113 54.5 22.4113 54.9186 22.4113H57.4302C58.1279 22.4113 58.9651 22.4113 59.6628 22.4113C60.0814 22.4113 60.5 22.5532 60.7791 22.9787V35.7447C60.6395 36.0284 60.2209 36.1702 59.8023 36.1702H59.6628C59.1047 36.0284 58.5465 36.0284 57.8488 36.0284C55.0581 36.1702 52.2674 36.7376 49.6163 37.8723C49.1977 38.0142 48.6395 38.156 48.0814 38.156H45.5698H41.5233V58.4397C41.5233 59.4326 41.3837 59.5745 40.2674 59.5745C40.1279 60 1.75581 60 1.75581 60ZM2.03488 58.4397H39.8488V32.1986H32.0349C30.2209 32.3404 28.686 30.922 28.5465 29.078C28.407 27.234 29.8023 25.6738 31.6163 25.5319C31.7558 25.5319 31.8954 25.5319 32.0349 25.5319C33.0116 25.5319 33.9884 25.5319 34.8256 25.5319H39.8488V1.41844H2.03488V58.4397ZM41.3837 36.8794H46.407L41.3837 33.0496V36.8794ZM40.1279 30.7801C40.5465 30.7801 41.1047 30.922 41.5233 31.2057L45.4302 34.1844L48.5 36.4539C48.6395 36.5957 48.9186 36.7376 49.1977 36.7376C49.3372 36.7376 49.4767 36.7376 49.6163 36.5957C49.8954 36.4539 50.314 36.3121 50.7326 36.1702C51.1512 36.0284 51.5698 35.8865 51.9884 35.7447C53.5233 35.0355 55.1977 34.7518 56.7326 34.7518C57.0116 34.7518 57.4302 34.7518 57.7093 34.7518H59.1047V24.1135H56.314C55.6163 24.1135 54.9186 24.1135 54.2209 24.1135C53.8023 24.1135 53.3837 23.9716 53.1047 23.6879C50.4535 21.7021 47.8023 19.7163 45.1512 17.7305L42.6395 15.7447L41.3837 14.8936V26.2411C41.3837 26.9504 41.1047 27.234 40.407 27.234H32.314C32.0349 27.234 31.6163 27.234 31.3372 27.3759C30.3605 27.6596 29.9419 28.7943 30.3605 29.6454C30.6395 30.3546 31.3372 30.7801 32.0349 30.7801H40.1279Z" fill="#BF996F"/>
<path d="M35.2441 21.5601H7.61621V22.9785H35.2441V21.5601Z" fill="#BF996F"/>
<path d="M35.2441 37.0215H7.61621V38.4399H35.2441V37.0215Z" fill="#BF996F"/>
<path d="M35.2441 11.3477H7.61621V12.7661H35.2441V11.3477Z" fill="#BF996F"/>
<path d="M26.1743 26.6665H7.61621V28.0849H26.1743V26.6665Z" fill="#BF996F"/>
<path d="M26.1743 31.915H7.61621V33.3335H26.1743V31.915Z" fill="#BF996F"/>
<path d="M30.221 16.4541H12.6396V17.8725H30.221V16.4541Z" fill="#BF996F"/>
<path d="M27.1514 6.24121H14.5933V7.65965H27.1514V6.24121Z" fill="#BF996F"/>
<path d="M35.2441 52.3403H26.7324V53.7588H35.2441V52.3403Z" fill="#BF996F"/>
</g>
<defs>
<clipPath id="clip0_20_902">
<rect width="60" height="60" fill="white" transform="translate(0.5)"/>
</clipPath>
</defs>
</svg>
