<svg width="61" height="60" viewBox="0 0 61 60" fill="none" xmlns="http://www.w3.org/2000/svg">
<g clip-path="url(#clip0_20_919)">
<path d="M15.6081 59.9998C14.8886 59.9998 14.1692 59.5629 14.1692 58.8348C14.1692 58.6891 14.1692 58.6891 14.1692 58.5435C14.1692 56.0678 14.1692 53.592 14.1692 51.1163C14.1692 50.3881 14.6009 49.9513 15.6081 49.66L15.8958 49.5144H15.6081L15.3203 49.3687C15.1764 49.2231 15.0325 49.2231 14.7448 49.0775L13.8815 48.7862C12.2987 48.3493 10.716 48.0581 9.13325 47.6212C7.6944 47.3299 6.39944 46.1649 6.11167 44.7085C4.67282 40.194 3.37786 35.825 1.93901 31.3105L0.787928 27.8153C0.787928 27.6697 0.644043 27.5241 0.644043 27.3784V27.2328V26.359C0.931813 25.3396 1.65124 24.6115 2.65843 24.4658C2.80232 24.4658 3.09009 24.4658 3.23397 24.4658C4.09728 24.4658 4.96059 24.9027 5.39224 25.7765L9.70879 34.9513L10.2843 34.66C10.5721 34.5144 10.716 34.5144 11.0038 34.5144C11.2915 34.5144 11.4354 34.5144 11.7232 34.66C15.0325 36.1163 18.3419 37.427 21.5074 38.7377C22.6584 39.1746 23.6656 40.194 23.9534 41.5047C24.5289 43.3979 25.1045 45.1454 25.68 47.0386L26.5433 49.9513H27.8383C28.7016 49.9513 29.2771 50.5338 29.2771 51.4076C29.2771 53.8833 29.2771 56.359 29.2771 58.8348C29.2771 59.5629 28.8455 60.2911 27.9822 60.2911H27.8383H15.6081V59.9998ZM15.752 58.3979H27.5505V51.5532H15.752V58.3979ZM3.09009 25.9221C2.9462 25.9221 2.80232 25.9221 2.65843 26.0678C2.22678 26.2134 2.08289 26.6503 2.22678 27.0872C2.22678 27.0872 2.22678 27.0872 2.22678 27.2328C4.09728 33.0581 5.8239 38.7377 7.6944 44.5629C7.83829 45.2911 8.55771 45.8736 9.27714 46.1649L12.8743 47.0386L15.4642 47.6212C16.0397 47.7668 16.4714 48.0581 16.7592 48.6406L16.903 48.9318C17.0469 49.2231 17.1908 49.3687 17.3347 49.66C17.4786 49.8056 17.6225 49.9513 17.9102 49.9513H24.8167L24.6728 49.5144C24.6728 49.3687 24.6728 49.2231 24.5289 49.0775L23.8095 46.893C23.234 45.2911 22.8023 43.5435 22.3707 41.9415C22.2268 41.2134 21.6512 40.6309 20.9318 40.3396C17.7663 39.0289 14.6009 37.7182 11.5793 36.4076C11.4354 36.4076 11.2915 36.2619 11.1476 36.2619C10.8599 36.2619 10.5721 36.4076 10.2843 36.8445C9.85268 37.5726 9.99656 38.4464 10.716 38.8833L10.8599 39.0289L15.4642 40.9221C16.0397 41.2134 16.1836 41.5047 16.0397 41.9415C15.8958 42.2328 15.6081 42.5241 15.3203 42.5241C15.1764 42.5241 15.0325 42.5241 14.8886 42.3784C13.7376 41.9415 12.5865 41.5047 11.4354 40.9221L10.2843 40.4852C8.7016 40.0483 7.98217 38.4464 8.41383 36.8445C8.41383 36.5532 8.41383 36.2619 8.26994 36.1163C7.26275 34.2231 6.39944 32.3299 5.39224 30.2911L3.66563 26.6503C3.52174 26.2134 3.37786 25.9221 3.09009 25.9221Z" fill="#BF996F"/>
<path d="M28.27 40.4854H27.5506C25.1045 40.0485 23.0902 38.0097 23.0902 35.3883C23.0902 34.8058 23.3779 34.5146 23.8096 34.3689C24.2412 34.3689 24.6729 34.6602 24.6729 35.0971V35.2427C24.6729 37.1359 26.2556 38.7379 28.1261 38.8835H28.27C30.2844 38.8835 31.8671 37.4272 31.8671 35.3883C31.8671 35.3883 31.8671 35.3883 31.8671 35.2427C31.8671 31.0194 31.8671 26.5049 31.8671 21.699C31.8671 19.6602 30.2844 18.0583 28.4139 18.0583C26.5434 18.0583 24.8168 19.5146 24.6729 21.4078V21.5534C24.6729 21.699 24.6729 21.8447 24.6729 21.8447C24.6729 22.1359 24.2412 22.4272 23.9535 22.4272C23.5218 22.4272 23.234 22.1359 23.234 21.8447C23.234 21.699 23.234 21.5534 23.234 21.4078C23.0902 19.5146 21.5074 17.9126 19.6369 17.9126C17.7664 17.9126 16.0398 19.5146 16.0398 21.4078V21.5534C16.0398 21.9903 15.752 22.4272 15.1765 22.4272C14.8887 22.4272 14.7448 22.2816 14.6009 22.1359C14.4571 21.9903 14.3132 21.699 14.4571 21.5534V20.8252C14.4571 19.8058 14.6009 18.932 14.7448 17.9126C16.1837 10.6311 21.9391 4.80583 29.1333 3.34951C29.565 3.20388 29.8527 3.20388 30.2844 3.20388H30.4283L31.4355 3.05825H32.011V0.873786C32.011 0.291262 32.2988 0 32.7304 0C33.1621 0 33.5938 0.291262 33.5938 0.873786C33.5938 1.45631 33.5938 1.74757 33.5938 2.18447V2.91262L34.7448 3.05825C35.4643 3.20388 36.1837 3.20388 36.9031 3.34951C44.6729 5.09709 50.4283 11.5049 51.2916 19.5146C51.2916 20.0971 51.4355 20.6796 51.4355 21.2621C51.4355 21.5534 51.4355 21.9903 51.1477 22.2816C51.0038 22.4272 50.8599 22.4272 50.7161 22.4272C50.1405 22.4272 49.9966 22.1359 49.8527 21.2621C49.7089 19.6602 48.7017 18.4951 47.2628 18.0583C46.975 17.9126 46.5434 17.9126 46.2556 17.9126C44.3851 17.9126 42.8024 19.5146 42.6585 21.4078C42.6585 21.9903 42.3707 22.4272 41.9391 22.4272C41.7952 22.4272 41.6513 22.4272 41.6513 22.2816C41.3635 22.1359 41.2196 21.8447 41.2196 21.4078C41.0758 19.5146 39.6369 17.9126 37.7664 17.9126C35.752 17.767 34.0254 19.3689 34.0254 21.4078V21.5534V27.6699C34.0254 29.7087 34.0254 31.8932 34.0254 33.932C34.0254 34.8058 34.0254 35.6796 33.8815 36.4078C32.8743 39.0291 30.7161 40.6311 28.27 40.4854ZM19.493 16.4563C21.2196 16.4563 22.8024 17.3301 23.8096 18.6408L23.9535 18.7864L24.0973 18.6408C24.9607 17.4757 26.2556 16.6019 27.6945 16.4563C27.9822 16.4563 28.1261 16.4563 28.4139 16.4563C29.7089 16.4563 30.8599 16.8932 31.7232 17.6214L32.011 17.767V4.66019H31.8671C27.8384 4.95146 23.9535 6.5534 20.9319 9.61165C18.7736 11.6505 17.3348 14.2718 16.4714 17.1845L16.3276 17.3301L16.6153 17.1845C17.4786 16.7476 18.4858 16.4563 19.493 16.4563ZM37.1909 16.4563C38.9175 16.6019 40.3563 17.3301 41.3635 18.6408L41.5074 18.7864L41.6513 18.6408C42.6585 17.3301 44.2412 16.4563 45.824 16.4563C46.8312 16.4563 47.6945 16.7476 48.5578 17.1845L48.7017 17.3301V17.0388C48.7017 15.2913 46.3995 11.3592 44.0973 9.32039C41.2196 6.5534 37.4786 4.95146 33.5938 4.66019V17.767L33.8815 17.6214C34.8887 16.8932 36.0398 16.4563 37.1909 16.4563Z" fill="#BF996F"/>
<path d="M33.4498 60.0002C32.2988 60.0002 31.8671 59.4176 31.8671 58.2526V51.4079C31.7232 50.6798 32.1549 49.806 33.0182 49.6604C33.1621 49.6604 33.4498 49.6604 33.5937 49.6604H34.6009L37.1909 41.0681C37.4786 40.0487 38.198 39.1749 39.2052 38.738L39.6369 38.5924C42.8024 37.2817 46.1117 35.8254 49.4211 34.5147C49.565 34.5147 49.7088 34.5147 49.8527 34.5147C50.1405 34.5147 50.2844 34.5147 50.5721 34.5147H51.0038V34.806L51.2916 34.6604L51.5793 34.0778L55.752 25.4856C56.1837 24.6118 56.9031 24.0293 57.9103 24.0293C58.198 24.0293 58.6297 24.0293 58.9175 24.1749C60.0685 24.6118 60.788 25.9225 60.3563 27.2332L58.7736 32.3303C57.4786 36.4079 56.1837 40.34 55.0326 44.4176C54.7448 45.874 53.4498 47.039 52.011 47.3303C50.2844 47.7672 48.7016 48.0584 46.975 48.4953L46.2556 48.6409C46.1117 48.6409 45.9678 48.7866 45.8239 48.9322C45.6801 48.9322 45.6801 49.0778 45.5362 49.0778L45.1045 49.6604L45.3923 49.806C46.3995 49.9516 46.975 50.8254 46.8311 51.8448C46.8311 53.3011 46.8311 54.7574 46.8311 56.2138V58.3982C46.975 59.1264 46.3995 60.0002 45.6801 60.0002C45.5362 60.0002 45.3923 60.0002 45.2484 60.0002H33.4498ZM33.4498 58.3982H45.2484V51.5536H33.4498V58.3982ZM40.2124 49.806H42.6585C43.234 49.9516 43.8096 49.5147 43.9534 49.0778C44.2412 48.2041 45.1045 47.6215 46.1117 47.4759C47.2628 47.1846 48.4139 46.8934 49.7088 46.6021L51.8671 46.0196C52.7304 45.874 53.306 45.2914 53.5937 44.4176C53.7376 43.8351 53.8815 43.3982 54.0254 42.8157L54.3132 41.9419C55.8959 37.1361 57.3347 32.1846 58.9175 27.2332C59.0614 26.9419 59.0614 26.6507 58.9175 26.505C58.7736 26.3594 58.4858 25.9225 58.198 25.9225C57.7664 25.9225 57.4786 26.2138 57.3347 26.505C56.4714 28.2526 55.6081 29.8545 54.7448 31.6021L52.8743 35.5342C52.5865 35.971 52.5865 36.4079 52.7304 36.9905C53.0182 38.1555 52.4427 39.4662 51.4355 40.0487C49.7088 40.7769 47.9822 41.505 46.3995 42.2332C46.2556 42.2332 46.1117 42.3788 45.9678 42.3788C45.6801 42.3788 45.2484 42.0875 45.2484 41.7963C45.1045 41.3594 45.2484 41.0681 45.8239 40.7769L50.4283 38.8837C51.1477 38.5924 51.4355 37.7186 51.1477 36.9905C51.1477 36.8448 51.0038 36.6992 50.8599 36.6992C50.716 36.4079 50.4283 36.4079 50.1405 36.2623C49.9966 36.2623 49.8527 36.2623 49.7088 36.4079L40.0685 40.34C39.493 40.6312 38.9175 41.0681 38.7736 41.7963C38.3419 43.2526 37.9103 44.7089 37.3347 46.3108L36.1837 49.806H40.2124Z" fill="#BF996F"/>
<path d="M25.8238 54.6117C25.536 54.6117 25.3921 54.4661 25.2482 54.3204C25.1043 54.1748 24.9604 54.0292 24.9604 53.7379C24.9604 53.301 25.3921 53.0098 25.8238 53.0098C26.2554 53.0098 26.6871 53.301 26.6871 53.7379C26.6871 53.8836 26.5432 54.1748 26.3993 54.3204C26.2554 54.4661 26.1115 54.6117 25.8238 54.6117Z" fill="#BF996F"/>
<path d="M35.1762 54.6117C34.8885 54.6117 34.7446 54.466 34.6007 54.3204C34.3129 54.0291 34.4568 53.4466 34.7446 53.1553C35.0324 52.8641 35.6079 53.0097 35.8957 53.301C36.0396 53.4466 36.0396 53.5922 36.0396 53.7379C35.8957 54.3204 35.6079 54.6117 35.1762 54.6117Z" fill="#BF996F"/>
</g>
<defs>
<clipPath id="clip0_20_919">
<rect width="60" height="60" fill="white" transform="translate(0.5)"/>
</clipPath>
</defs>
</svg>
