<svg width="61" height="60" viewBox="0 0 61 60" fill="none" xmlns="http://www.w3.org/2000/svg">
<g clip-path="url(#clip0_20_875)">
<path d="M59.9706 29.434C59.7942 28.8679 59.4412 28.7264 59.2647 28.7264C58.9118 28.7264 58.5589 28.8679 58.3824 29.1509C58.3824 29.1509 58.3824 29.2924 58.3824 29.5755C58.3824 29.8585 58.3824 29.717 58.3824 29.8585C58.3824 30.283 58.3824 30.7075 58.3824 30.9906C58.5589 31.8396 58.5589 32.6887 58.3824 33.5377C57.5 39.3396 51.3236 43.7264 44.0883 43.7264H43.7353C36.1471 43.5849 29.7942 38.9151 29.4412 32.8302C28.9118 28.3019 31.7353 24.0566 36.6765 21.934C43.3824 18.8208 52.0295 20.5189 56.2648 25.7547C56.4412 26.0377 56.7942 26.1792 57.1471 26.1792C57.3236 26.1792 57.5 26.0377 57.6765 26.0377C57.853 25.8962 58.0295 25.4717 57.6765 25.0472C55.9118 22.9245 53.4412 21.2264 50.6177 20.2358C50.0883 20.0943 49.7353 19.6698 49.7353 19.2453C49.7353 16.9811 49.7353 14.717 49.7353 12.5943C49.7353 9.33962 49.7353 6.08491 49.7353 2.68868C49.9118 1.5566 49.2059 0.424528 47.7942 0H2.61769C1.20593 0.424528 0.147105 1.69811 0.500046 2.9717C0.500046 3.53774 0.500046 4.10377 0.500046 4.66981C0.500046 4.95283 0.500046 5.23585 0.500046 5.51887C0.500046 6.08491 0.852987 6.50943 1.3824 6.50943C1.91181 6.50943 2.26475 6.08491 2.26475 5.51887C2.26475 4.95283 2.26475 2.68868 2.26475 2.68868C2.26475 1.69811 2.44122 1.41509 3.85299 1.41509H46.5589C47.9706 1.41509 48.1471 1.5566 48.1471 2.68868V19.5283L44.6177 19.1038V7.07547C44.7942 5.23585 43.0295 3.67924 40.9118 3.53774C40.7353 3.53774 40.5589 3.53774 40.2059 3.53774H10.7353C8.44122 3.39623 6.50005 4.81132 6.32358 6.50943C6.32358 6.65094 6.32358 6.93396 6.32358 7.07547C6.32358 10.7547 6.32358 14.434 6.32358 18.2547C6.32358 18.6792 6.32358 19.1038 6.50005 19.3868C7.02946 20.8019 8.79416 21.7925 10.7353 21.6509H34.0295L33.6765 21.934C27.3236 26.8868 25.9118 32.4057 29.6177 38.066C32.2648 42.5943 37.9118 45.283 44.0883 45.1415C45.3236 45.1415 46.7353 45 47.9706 44.8585H48.1471V48.8208H38.7942C37.5589 48.6792 36.3236 49.3868 36.1471 50.5189C36.1471 50.6604 36.1471 50.8019 36.1471 50.9434V58.4434H34.7353C34.3824 58.4434 34.0295 58.7264 34.0295 59.1509C34.0295 59.434 34.2059 59.717 34.7353 59.8585H35.9706C37.2059 59.8585 38.6177 59.5755 39.5 58.7264C41.9706 56.7453 44.4412 54.7641 46.7353 52.9245L48.3236 51.6509C49.2059 50.9434 49.7353 50.0943 49.7353 49.1038C49.7353 48.3962 49.7353 47.6887 49.7353 46.9811C49.7353 46.2736 49.7353 45.7075 49.7353 45C49.7353 44.717 49.9118 44.2924 50.4412 44.2924C55.7353 42.4528 59.4412 38.4906 60.1471 33.9623C60.5 32.4057 60.5 30.8491 59.9706 29.434ZM38.0883 20.0943H37.7353C37.2059 20.2358 36.853 20.2358 36.3236 20.2358H11.0883C8.79416 20.2358 8.08828 19.6698 8.08828 17.8302V7.21698C8.08828 5.66038 8.97063 4.95283 10.9118 4.95283H40.0295C41.9706 4.95283 42.853 5.66038 42.853 7.21698V18.1132C42.853 18.9623 42.853 19.1038 41.6177 19.2453C40.9118 19.3868 40.2059 19.5283 39.5 19.6698L38.0883 20.0943ZM38.2648 50.5189C38.4412 50.3774 38.6177 50.3774 38.9706 50.3774H47.0883H47.2648L47.6177 50.5189L38.6177 57.7358L38.2648 58.0189V57.5943C38.2648 57.4528 38.2648 57.4528 38.2648 57.3113V51.2264C38.0883 50.9434 38.0883 50.8019 38.2648 50.5189Z" fill="#BF996F"/>
<path d="M29.2649 58.585H4.02961H3.5002C3.32373 58.585 3.32373 58.585 3.14726 58.585C2.79432 58.4435 2.44138 58.1605 2.2649 57.8775C2.2649 57.736 2.2649 57.453 2.2649 57.3114V10.3303C2.2649 9.19824 1.91196 9.19824 1.38255 9.19824C0.85314 9.19824 0.500199 9.33975 0.500199 10.3303V57.453C0.323729 58.585 1.38255 59.7171 2.79432 59.8586C2.97079 59.8586 3.14726 59.8586 3.32373 59.8586H29.2649C29.9708 59.8586 30.3237 59.5756 30.3237 59.1511C30.3237 58.7265 29.9708 58.585 29.2649 58.585Z" fill="#BF996F"/>
<path d="M7.02961 50.3773C6.67667 50.3773 6.32373 50.6604 6.32373 51.0849C6.32373 51.3679 6.67667 51.7924 7.02961 51.7924H25.0296H25.3826C25.912 51.7924 26.2649 51.5094 26.2649 51.0849C26.2649 50.6604 25.912 50.3773 25.3826 50.3773H7.38255C7.38255 50.2358 7.20608 50.3773 7.02961 50.3773Z" fill="#BF996F"/>
<path d="M25.9116 26.8866C25.7351 26.7451 25.3822 26.7451 25.2057 26.7451H7.55862C7.02921 26.7451 6.67627 27.0281 6.67627 27.4527C6.67627 27.8772 7.02921 28.1602 7.55862 28.1602H25.2057C25.7351 28.1602 26.2645 28.0187 26.2645 27.4527C26.088 27.1696 26.088 27.0281 25.9116 26.8866Z" fill="#BF996F"/>
<path d="M7.38235 43.8677H24.5C25.2059 43.8677 25.5588 43.5847 25.5588 43.1602C25.5588 43.0187 25.5588 42.8772 25.3824 42.7357C25.2059 42.5941 24.8529 42.4526 24.6765 42.4526H7.55882C6.67647 42.4526 6.5 42.8772 6.5 43.1602C6.5 43.3017 6.5 43.5847 6.67647 43.5847C6.85294 43.7262 7.20588 43.8677 7.38235 43.8677Z" fill="#BF996F"/>
<path d="M7.38255 35.9434H24.3237H25.0296C25.3826 35.9434 25.7355 35.8019 25.912 35.5189C26.0884 35.3774 25.912 35.0944 25.7355 34.9529C25.559 34.6698 25.2061 34.5283 24.6767 34.5283C23.0884 34.5283 21.5002 34.5283 20.2649 34.5283H7.38255C6.85314 34.5283 6.5002 34.8113 6.32373 35.2359C6.32373 35.6604 6.85314 35.9434 7.38255 35.9434Z" fill="#BF996F"/>
<path d="M43.0294 28.3021C43.0294 26.7455 41.7941 25.4719 39.8529 25.0474H39.3235C37.2059 25.1889 35.4412 26.604 35.6177 28.4436V28.5851V28.8681C35.7941 30.5662 37.3824 31.8398 39.3235 31.8398C39.5 31.8398 39.8529 31.8398 40.0294 31.8398C41.9706 31.2738 43.0294 29.8587 43.0294 28.3021ZM37.2059 28.4436C37.0294 27.453 38.0882 26.604 39.3235 26.4625C40.5588 26.604 41.4412 27.453 41.2647 28.4436C41.2647 29.4342 40.5588 30.2832 39.3235 30.4247C38.0882 30.2832 37.2059 29.4342 37.2059 28.4436Z" fill="#BF996F"/>
<path d="M46.9119 40.1884C47.2648 40.33 47.6178 40.33 47.9707 40.33C48.8531 40.33 49.7354 40.0469 50.4413 39.4809C51.8531 38.2073 52.0296 36.3677 50.9707 35.0941C49.9119 33.8205 47.7943 33.396 46.0296 34.1035C45.8531 34.2451 45.6766 34.3866 45.3237 34.5281C44.4413 35.2356 44.0884 36.2262 44.0884 37.2168C44.0884 37.3583 44.0884 37.4998 44.0884 37.4998C44.4413 38.6318 45.5001 39.7639 46.9119 40.1884ZM46.0296 36.9337C46.0296 36.3677 46.206 35.8017 46.7354 35.3771C47.0884 35.0941 47.4413 34.9526 47.9707 34.9526C49.3825 35.2356 50.2648 36.2262 49.9119 37.3583C49.7354 38.0658 49.0296 38.7734 47.9707 38.9149C46.7354 38.7734 45.8531 37.9243 46.0296 36.9337Z" fill="#BF996F"/>
<path d="M40.5587 39.4813C41.0882 39.4813 41.2646 39.1983 41.4411 38.9153L47.794 26.887C47.9705 26.6039 47.9705 26.3209 47.794 26.0379C47.6176 25.8964 47.4411 25.7549 47.0881 25.7549C46.7352 25.7549 46.3823 25.8964 46.2058 26.4624C45.3234 28.3021 44.2646 30.1417 43.3823 31.9813L41.6176 35.519C41.0881 36.5096 40.5587 37.5002 40.0293 38.4907C39.8529 38.7738 39.8529 39.0568 40.0293 39.1983C40.0293 39.3398 40.2058 39.3398 40.5587 39.4813Z" fill="#BF996F"/>
<path d="M7.91197 31.981H10.912C11.4414 31.981 11.7943 31.698 11.7943 31.2735C11.7943 30.9904 11.4414 30.5659 11.0884 30.5659C9.85314 30.5659 8.61785 30.5659 7.20608 30.5659C7.02961 30.5659 6.67667 30.5659 6.5002 30.7074C6.32373 30.8489 6.32373 30.9904 6.32373 31.2735C6.32373 31.698 6.67667 31.981 7.20608 31.981H7.91197Z" fill="#BF996F"/>
<path d="M7.20608 39.9058H11.0884C11.7943 39.9058 11.9708 39.4813 11.9708 39.1983C11.9708 39.0568 11.9708 38.7738 11.7943 38.6323C11.6178 38.4907 11.4414 38.3492 11.0884 38.4907C9.85314 38.4907 8.61785 38.4907 7.20608 38.4907C6.67667 38.4907 6.32373 38.7738 6.32373 39.0568C6.32373 39.4813 6.67667 39.9058 7.20608 39.9058Z" fill="#BF996F"/>
<path d="M7.20594 47.8301H11.0883C11.4412 47.8301 11.9706 47.5471 11.9706 47.2641C11.9706 47.2641 11.9706 47.2641 11.9706 47.1226C11.9706 46.8396 11.6177 46.415 11.2648 46.415H11.0883H7.20594C7.02947 46.415 6.67653 46.5565 6.50006 46.6981C6.14712 46.9811 6.14712 47.4056 6.50006 47.6886C6.853 47.6886 7.02947 47.8301 7.20594 47.8301Z" fill="#BF996F"/>
<path d="M30.8531 16.1322L27.3237 8.77375C27.1472 8.34922 26.6178 8.0662 25.9119 8.20771C25.559 8.20771 25.2061 8.49073 25.2061 8.77375L23.9708 11.3209C23.2649 12.8775 22.3825 14.5756 21.6767 16.2737C21.5002 16.5568 21.6767 16.9813 22.0296 17.2643C22.2061 17.2643 22.2061 17.2643 22.3825 17.2643C22.7355 17.2643 23.0884 17.1228 23.2649 16.6983C23.4414 16.4153 23.4414 16.2737 23.6178 15.9907C23.7943 15.5662 24.1472 15.4247 24.6767 15.4247H27.8531C28.3825 15.4247 28.7355 15.7077 28.9119 15.9907C29.0884 16.2737 29.2649 16.6983 29.4414 16.9813C29.6178 17.1228 29.7943 17.2643 30.1472 17.4058C30.3237 17.4058 30.3237 17.4058 30.5002 17.4058C30.6767 17.2643 30.8531 17.1228 31.0296 16.9813L31.2061 16.8398V16.5568L30.8531 16.1322ZM27.8531 14.0096H24.5002L26.0884 10.4719L27.8531 14.0096Z" fill="#BF996F"/>
<path d="M19.7352 8.06625C19.3822 7.92474 18.8528 8.06625 18.6763 8.49078C18.6763 8.63229 18.4999 8.63229 18.4999 8.7738L16.0293 14.5757C15.8528 14.1512 15.6763 13.7266 15.4999 13.5851L13.3822 8.63229C13.2057 8.20776 12.6763 7.92474 12.3234 8.06625C12.1469 8.06625 11.9704 8.20776 11.794 8.34927C11.6175 8.63229 11.6175 8.7738 11.794 9.05682L14.9704 16.4153C15.1469 16.8398 15.4999 17.1229 16.0293 17.1229C16.5587 17.1229 16.9116 16.8398 17.0881 16.4153C17.2646 16.1323 17.2646 15.8493 17.441 15.4247L18.3234 13.4436L20.2646 8.91531C20.441 8.63229 20.2646 8.20776 19.7352 8.06625Z" fill="#BF996F"/>
<path d="M37.9118 8.06592H32.7942C32.0883 8.06592 31.7354 8.34894 31.7354 8.77347C31.7354 9.19799 32.0883 9.48101 32.7942 9.48101H34.5589V16.5565C34.5589 16.981 34.9118 17.264 35.4412 17.264C35.9706 17.264 36.3236 16.981 36.3236 16.5565C36.3236 16.415 36.3236 16.2735 36.3236 15.9904V9.76403V9.62252L36.5001 9.48101H37.9118C38.6177 9.48101 38.9706 9.19799 38.9706 8.77347C38.9706 8.34894 38.4412 8.06592 37.9118 8.06592Z" fill="#BF996F"/>
</g>
<defs>
<clipPath id="clip0_20_875">
<rect width="60" height="60" fill="white" transform="translate(0.5)"/>
</clipPath>
</defs>
</svg>
