<svg width="24" height="24" viewBox="0 0 24 24" fill="none" xmlns="http://www.w3.org/2000/svg">
<path d="M23.75 12C23.75 12.1989 23.671 12.3897 23.5303 12.5303C23.3897 12.671 23.1989 12.75 23 12.75H12.75V23C12.75 23.1989 12.671 23.3897 12.5303 23.5303C12.3897 23.671 12.1989 23.75 12 23.75C11.8011 23.75 11.6103 23.671 11.4697 23.5303C11.329 23.3897 11.25 23.1989 11.25 23V12.75H1C0.801088 12.75 0.610322 12.671 0.46967 12.5303C0.329018 12.3897 0.25 12.1989 0.25 12C0.25 11.8011 0.329018 11.6103 0.46967 11.4697C0.610322 11.329 0.801088 11.25 1 11.25H11.25V1C11.25 0.801088 11.329 0.610322 11.4697 0.46967C11.6103 0.329018 11.8011 0.25 12 0.25C12.1989 0.25 12.3897 0.329018 12.5303 0.46967C12.671 0.610322 12.75 0.801088 12.75 1V11.25H23C23.1989 11.25 23.3897 11.329 23.5303 11.4697C23.671 11.6103 23.75 11.8011 23.75 12Z" fill="currentColor"/>
</svg>
