<svg width="186" height="186" viewBox="0 0 186 186" fill="none" xmlns="http://www.w3.org/2000/svg">
<path fill-rule="evenodd" clip-rule="evenodd" d="M0.5 93C0.5 41.9136 41.9136 0.5 93 0.5C144.086 0.5 185.5 41.9136 185.5 93C185.5 144.086 144.086 185.5 93 185.5C41.9136 185.5 0.5 144.086 0.5 93ZM127.291 67.9592C130.903 71.5716 130.903 77.4285 127.291 81.0407L93.2248 115.107C87.992 120.339 79.5079 120.339 74.275 115.107L58.7092 99.5407C55.0969 95.9285 55.0969 90.0714 58.7092 86.4593C62.3216 82.8472 68.1784 82.8472 71.7908 86.4593L83.75 98.4186L114.209 67.9592C117.821 64.3469 123.679 64.3469 127.291 67.9592Z" fill="#14FF72"/>
</svg>
