<svg width="41" height="40" viewBox="0 0 41 40" fill="none" xmlns="http://www.w3.org/2000/svg">
<g clip-path="url(#clip0_20_628)">
<path opacity="0.2" d="M54.25 35H24.25V5L54.25 35Z" fill="white"/>
<path d="M36.3511 12.1644L26.8057 4.0875C26.6789 3.98038 26.5285 3.89544 26.363 3.83754C26.1974 3.77963 26.02 3.74988 25.8409 3.75H9.47727C8.75396 3.75 8.06026 3.99313 7.5488 4.42591C7.03734 4.85868 6.75 5.44565 6.75 6.05769V31.4423C6.75 32.0543 7.03734 32.6413 7.5488 33.0741C8.06026 33.5069 8.75396 33.75 9.47727 33.75H34.0227C34.746 33.75 35.4397 33.5069 35.9512 33.0741C36.4627 32.6413 36.75 32.0543 36.75 31.4423V12.9808C36.7501 12.8292 36.715 12.6791 36.6466 12.539C36.5781 12.3989 36.4777 12.2717 36.3511 12.1644ZM27.2045 7.68894L32.0949 11.8269H27.2045V7.68894ZM34.0227 31.4423H9.47727V6.05769H24.4773V12.9808C24.4773 13.2868 24.6209 13.5803 24.8767 13.7967C25.1324 14.013 25.4792 14.1346 25.8409 14.1346H34.0227V31.4423Z" fill="white"/>
</g>
<defs>
<clipPath id="clip0_20_628">
<rect width="40" height="40" fill="white" transform="translate(0.5)"/>
</clipPath>
</defs>
</svg>
