<svg width="41" height="40" viewBox="0 0 41 40" fill="none" xmlns="http://www.w3.org/2000/svg">
<path opacity="0.2" d="M24.5197 7.33559L14.0856 17.7697C13.9645 17.8909 13.8206 17.9871 13.6623 18.0528C13.5039 18.1184 13.3342 18.1522 13.1628 18.1522C12.9914 18.1522 12.8217 18.1184 12.6634 18.0528C12.505 17.9871 12.3612 17.8909 12.2401 17.7697L9.63155 15.1611C9.51028 15.04 9.41408 14.8962 9.34844 14.7378C9.28281 14.5795 9.24902 14.4098 9.24902 14.2384C9.24902 14.067 9.28281 13.8973 9.34844 13.7389C9.41408 13.5806 9.51028 13.4367 9.63155 13.3156L20.0656 2.88155C20.1867 2.76028 20.3306 2.66408 20.4889 2.59844C20.6473 2.53281 20.817 2.49902 20.9884 2.49902C21.1598 2.49902 21.3295 2.53281 21.4878 2.59844C21.6462 2.66408 21.79 2.76028 21.9111 2.88155L24.5197 5.49006C24.6409 5.61119 24.7371 5.75504 24.8028 5.91337C24.8684 6.07171 24.9022 6.24143 24.9022 6.41283C24.9022 6.58423 24.8684 6.75394 24.8028 6.91228C24.7371 7.07061 24.6409 7.21446 24.5197 7.33559ZM38.8665 19.8369L36.258 17.2284C36.1369 17.1071 35.993 17.0109 35.8347 16.9453C35.6763 16.8797 35.5066 16.8459 35.3352 16.8459C35.1638 16.8459 34.9941 16.8797 34.8358 16.9453C34.6774 17.0109 34.5336 17.1071 34.4125 17.2284L23.9784 27.6625C23.8571 27.7836 23.7609 27.9274 23.6953 28.0858C23.6297 28.2441 23.5959 28.4138 23.5959 28.5852C23.5959 28.7566 23.6297 28.9263 23.6953 29.0847C23.7609 29.243 23.8571 29.3869 23.9784 29.508L26.5869 32.1165C26.708 32.2378 26.8519 32.334 27.0102 32.3996C27.1686 32.4652 27.3383 32.499 27.5097 32.499C27.6811 32.499 27.8508 32.4652 28.0091 32.3996C28.1675 32.334 28.3113 32.2378 28.4324 32.1165L38.8665 21.6824C38.9878 21.5613 39.084 21.4175 39.1496 21.2591C39.2152 21.1008 39.249 20.9311 39.249 20.7597C39.249 20.5883 39.2152 20.4186 39.1496 20.2602C39.084 20.1019 38.9878 19.958 38.8665 19.8369Z" fill="white"/>
<path d="M33.7387 15.8552L31.5887 13.7052C31.224 13.341 30.7406 13.1198 30.2266 13.0821C29.7126 13.0444 29.2021 13.1925 28.7882 13.4996L22.1175 6.82925C22.4248 6.41549 22.5732 5.90513 22.5357 5.39113C22.4982 4.87713 22.2773 4.39371 21.9133 4.0289L19.7632 1.87891C19.5635 1.67922 19.3265 1.52081 19.0656 1.41273C18.8047 1.30465 18.5251 1.24902 18.2427 1.24902C17.9603 1.24902 17.6807 1.30465 17.4198 1.41273C17.1589 1.52081 16.9218 1.67922 16.7222 1.87891L8.12186 10.4789C7.92216 10.6785 7.76374 10.9155 7.65566 11.1764C7.54757 11.4373 7.49195 11.7169 7.49195 11.9993C7.49195 12.2817 7.54757 12.5613 7.65566 12.8222C7.76374 13.0831 7.92216 13.3201 8.12186 13.5197L10.2719 15.6697C10.6367 16.0334 11.1199 16.254 11.6336 16.2915C12.1473 16.329 12.6574 16.1808 13.0711 15.874L14.0346 16.8374L5.24882 25.6228C4.66512 26.2612 4.35016 27.1 4.36949 27.9648C4.38883 28.8295 4.74098 29.6535 5.35263 30.2651C5.96427 30.8767 6.78827 31.2288 7.65305 31.2482C8.51783 31.2675 9.35675 30.9526 9.99512 30.3689L18.7795 21.5835L19.743 22.5456C19.4358 22.9594 19.2874 23.4698 19.3249 23.9838C19.3624 24.4978 19.5833 24.9812 19.9473 25.346L22.0974 27.496C22.2971 27.6957 22.5341 27.8541 22.795 27.9622C23.0559 28.0702 23.3355 28.1259 23.6179 28.1259C23.9003 28.1259 24.1799 28.0702 24.4408 27.9622C24.7017 27.8541 24.9388 27.6957 25.1384 27.496L33.7387 18.896C33.9384 18.6964 34.0969 18.4594 34.2049 18.1985C34.313 17.9376 34.3687 17.658 34.3687 17.3756C34.3687 17.0932 34.313 16.8136 34.2049 16.5527C34.0969 16.2918 33.9384 16.0548 33.7387 15.8552ZM11.7918 14.15L9.6417 12L18.242 3.40003L20.3921 5.55001L11.7918 14.15ZM8.47528 28.8478C8.24868 29.073 7.94215 29.1995 7.62264 29.1995C7.30313 29.1995 6.9966 29.073 6.77 28.8478C6.54515 28.6213 6.41898 28.315 6.41898 27.9959C6.41898 27.6767 6.54515 27.3705 6.77 27.1439L15.5544 18.3585L17.2597 20.0624L8.47528 28.8478ZM14.6138 14.373L20.6152 8.37187L27.2455 15.0019L21.2454 21.003L14.6138 14.373ZM23.6172 25.9749L21.4671 23.8249L22.0047 23.2874L29.53 15.7624L30.0675 15.2249L32.2176 17.3749L23.6172 25.9749Z" fill="white"/>
</svg>
