<svg width="41" height="40" viewBox="0 0 41 40" fill="none" xmlns="http://www.w3.org/2000/svg">
<path opacity="0.2" d="M34.2313 8.81114L29.5829 35.2174C29.5544 35.3791 29.4943 35.5336 29.4061 35.6721C29.3179 35.8106 29.2032 35.9303 29.0687 36.0245C28.9342 36.1187 28.7825 36.1854 28.6222 36.2209C28.4618 36.2564 28.2961 36.26 28.1344 36.2315L7.78285 32.6377C7.45659 32.5802 7.16652 32.3954 6.97638 32.1241C6.78624 31.8528 6.71157 31.5171 6.76879 31.1908L11.4172 4.78458C11.4457 4.62287 11.5058 4.46836 11.594 4.32988C11.6822 4.19139 11.7969 4.07165 11.9314 3.97748C12.0659 3.88331 12.2176 3.81656 12.3779 3.78105C12.5382 3.74554 12.704 3.74196 12.8657 3.77051L33.2172 7.36427C33.5435 7.42182 33.8336 7.60654 34.0237 7.87784C34.2138 8.14914 34.2885 8.48482 34.2313 8.81114Z" fill="white"/>
<path d="M33.4345 6.13257L13.083 2.53882C12.4301 2.42393 11.7583 2.57305 11.2154 2.95337C10.6724 3.3337 10.3027 3.9141 10.1876 4.56694L5.5392 30.9732C5.48235 31.2967 5.4898 31.6282 5.56112 31.9488C5.63245 32.2694 5.76625 32.5729 5.95489 32.8417C6.14353 33.1106 6.3833 33.3397 6.66051 33.5159C6.93771 33.6921 7.24692 33.8119 7.57045 33.8685L27.922 37.4623C28.2456 37.5193 28.5773 37.5121 28.8981 37.4408C29.2189 37.3696 29.5225 37.2359 29.7916 37.0472C30.0606 36.8585 30.2898 36.6187 30.4661 36.3414C30.6424 36.0641 30.7623 35.7547 30.8189 35.431L35.4673 9.02476C35.5812 8.37167 35.431 7.70009 35.0498 7.15772C34.6686 6.61535 34.0876 6.2466 33.4345 6.13257ZM28.3533 34.9998L8.00014 31.406L12.6486 4.99976L33.0001 8.59351L28.3533 34.9998ZM14.4595 9.12788C14.5174 8.80159 14.7025 8.51164 14.9741 8.32178C15.2457 8.13191 15.5816 8.05768 15.908 8.11538L28.8767 10.4044C29.1849 10.4584 29.4617 10.6261 29.6523 10.8742C29.8429 11.1224 29.9335 11.433 29.9063 11.7447C29.879 12.0564 29.7358 12.3466 29.5049 12.5578C29.2741 12.7691 28.9724 12.8861 28.6595 12.8857C28.5862 12.8856 28.513 12.8793 28.4408 12.8669L15.472 10.5763C15.1457 10.5184 14.8558 10.3333 14.6659 10.0617C14.476 9.7901 14.4018 9.45421 14.4595 9.12788ZM13.5939 14.0529C13.6224 13.8912 13.6824 13.7367 13.7707 13.5982C13.8589 13.4597 13.9735 13.34 14.108 13.2458C14.2425 13.1516 14.3943 13.0849 14.5546 13.0494C14.7149 13.0138 14.8806 13.0103 15.0423 13.0388L28.0111 15.3294C28.3215 15.3814 28.6008 15.5484 28.7934 15.7973C28.986 16.0462 29.0777 16.3585 29.0501 16.672C29.0224 16.9855 28.8776 17.277 28.6444 17.4884C28.4113 17.6998 28.107 17.8154 27.7923 17.8123C27.7184 17.8124 27.6447 17.8056 27.572 17.7919L14.6033 15.5029C14.2772 15.4443 13.9878 15.2586 13.7985 14.9868C13.6093 14.7149 13.5357 14.379 13.5939 14.0529ZM12.7267 18.9763C12.7857 18.6509 12.9712 18.3621 13.2427 18.1732C13.5142 17.9843 13.8495 17.9107 14.1751 17.9685L20.6564 19.1076C20.9645 19.1615 21.2411 19.3291 21.4317 19.577C21.6224 19.825 21.7131 20.1354 21.686 20.447C21.6589 20.7586 21.516 21.0488 21.2855 21.2601C21.0549 21.4715 20.7535 21.5888 20.4408 21.5888C20.3675 21.5888 20.2943 21.5825 20.222 21.5701L13.7376 20.4248C13.4116 20.3665 13.1221 20.1812 12.9325 19.9097C12.743 19.6381 12.669 19.3024 12.7267 18.9763Z" fill="white"/>
</svg>
