<svg width="41" height="40" viewBox="0 0 41 40" fill="none" xmlns="http://www.w3.org/2000/svg">
<g clip-path="url(#clip0_20_607)">
<path opacity="0.2" d="M19.25 16.25C19.25 17.4861 18.8834 18.6945 18.1967 19.7223C17.5099 20.7501 16.5338 21.5512 15.3918 22.0242C14.2497 22.4973 12.9931 22.6211 11.7807 22.3799C10.5683 22.1388 9.45466 21.5435 8.58059 20.6694C7.70651 19.7953 7.11125 18.6817 6.87009 17.4693C6.62894 16.2569 6.75271 15.0003 7.22576 13.8582C7.6988 12.7162 8.49988 11.7401 9.52769 11.0533C10.5555 10.3666 11.7639 10 13 10C14.6576 10 16.2473 10.6585 17.4194 11.8306C18.5915 13.0027 19.25 14.5924 19.25 16.25Z" fill="white"/>
<path d="M23.0002 12.4999C23.0002 12.1684 23.1319 11.8505 23.3663 11.616C23.6008 11.3816 23.9187 11.2499 24.2502 11.2499H39.2502C39.5817 11.2499 39.8997 11.3816 40.1341 11.616C40.3685 11.8505 40.5002 12.1684 40.5002 12.4999C40.5002 12.8314 40.3685 13.1494 40.1341 13.3838C39.8997 13.6182 39.5817 13.7499 39.2502 13.7499H24.2502C23.9187 13.7499 23.6008 13.6182 23.3663 13.3838C23.1319 13.1494 23.0002 12.8314 23.0002 12.4999ZM39.2502 18.7499H24.2502C23.9187 18.7499 23.6008 18.8816 23.3663 19.116C23.1319 19.3504 23.0002 19.6684 23.0002 19.9999C23.0002 20.3314 23.1319 20.6494 23.3663 20.8838C23.6008 21.1182 23.9187 21.2499 24.2502 21.2499H39.2502C39.5817 21.2499 39.8997 21.1182 40.1341 20.8838C40.3685 20.6494 40.5002 20.3314 40.5002 19.9999C40.5002 19.6684 40.3685 19.3504 40.1341 19.116C39.8997 18.8816 39.5817 18.7499 39.2502 18.7499ZM39.2502 26.2499H28.0002C27.6687 26.2499 27.3508 26.3816 27.1163 26.616C26.8819 26.8505 26.7502 27.1684 26.7502 27.4999C26.7502 27.8314 26.8819 28.1494 27.1163 28.3838C27.3508 28.6182 27.6687 28.7499 28.0002 28.7499H39.2502C39.5817 28.7499 39.8997 28.6182 40.1341 28.3838C40.3685 28.1494 40.5002 27.8314 40.5002 27.4999C40.5002 27.1684 40.3685 26.8505 40.1341 26.616C39.8997 26.3816 39.5817 26.2499 39.2502 26.2499ZM24.2112 29.6874C24.252 29.8464 24.2612 30.012 24.238 30.1745C24.2149 30.3371 24.16 30.4935 24.0764 30.6348C23.9929 30.7761 23.8823 30.8996 23.7509 30.9982C23.6196 31.0967 23.4702 31.1685 23.3112 31.2093C23.2093 31.2367 23.1042 31.2504 22.9987 31.2499C22.7214 31.2501 22.452 31.158 22.2328 30.9883C22.0136 30.8186 21.857 30.5808 21.7877 30.3124C20.8252 26.5718 17.0471 23.7499 12.9987 23.7499C8.95022 23.7499 5.1721 26.5702 4.2096 30.3124C4.12672 30.6336 3.91965 30.9087 3.63395 31.0771C3.34825 31.2456 3.00732 31.2937 2.68616 31.2109C2.365 31.128 2.08992 30.9209 1.92143 30.6352C1.75294 30.3495 1.70484 30.0086 1.78772 29.6874C2.66116 26.2952 5.20022 23.5484 8.4221 22.1874C7.18152 21.2319 6.27114 19.912 5.81863 18.4129C5.36613 16.9138 5.39419 15.3107 5.89889 13.8283C6.40358 12.346 7.3596 11.0588 8.63286 10.1473C9.90612 9.23574 11.4328 8.74561 12.9987 8.74561C14.5646 8.74561 16.0912 9.23574 17.3645 10.1473C18.6377 11.0588 19.5937 12.346 20.0984 13.8283C20.6031 15.3107 20.6312 16.9138 20.1787 18.4129C19.7262 19.912 18.8158 21.2319 17.5752 22.1874C20.7987 23.5484 23.3377 26.2952 24.2112 29.6874ZM13.0002 21.2499C13.9891 21.2499 14.9558 20.9567 15.7781 20.4073C16.6003 19.8579 17.2412 19.077 17.6196 18.1633C17.9981 17.2497 18.0971 16.2444 17.9042 15.2745C17.7112 14.3046 17.235 13.4136 16.5358 12.7144C15.8365 12.0151 14.9456 11.5389 13.9757 11.346C13.0058 11.1531 12.0004 11.2521 11.0868 11.6305C10.1732 12.009 9.39228 12.6498 8.84287 13.4721C8.29347 14.2943 8.00022 15.261 8.00022 16.2499C8.00022 17.576 8.52701 18.8478 9.46469 19.7854C10.4024 20.7231 11.6741 21.2499 13.0002 21.2499Z" fill="white"/>
</g>
<defs>
<clipPath id="clip0_20_607">
<rect width="40" height="40" fill="white" transform="translate(0.5)"/>
</clipPath>
</defs>
</svg>
