<svg width="32" height="33" viewBox="0 0 32 33" fill="none" xmlns="http://www.w3.org/2000/svg">
<path opacity="0.2" d="M28 16.1035C28 18.4769 27.2962 20.797 25.9776 22.7704C24.6591 24.7437 22.7849 26.2818 20.5922 27.1901C18.3995 28.0983 15.9867 28.336 13.6589 27.8729C11.3312 27.4099 9.19295 26.267 7.51472 24.5888C5.83649 22.9106 4.6936 20.7724 4.23058 18.4446C3.76756 16.1168 4.0052 13.704 4.91345 11.5113C5.8217 9.3186 7.35977 7.44446 9.33316 6.12588C11.3066 4.8073 13.6266 4.10352 16 4.10352C19.1826 4.10352 22.2348 5.3678 24.4853 7.61823C26.7357 9.86867 28 12.9209 28 16.1035Z" fill="#BF996F"/>
<path d="M16 3.10352C13.4288 3.10352 10.9154 3.86595 8.77759 5.29441C6.63975 6.72287 4.97351 8.75319 3.98957 11.1286C3.00563 13.5041 2.74819 16.1179 3.2498 18.6397C3.75141 21.1614 4.98953 23.4778 6.80762 25.2959C8.6257 27.114 10.9421 28.3521 13.4638 28.8537C15.9856 29.3553 18.5995 29.0979 20.9749 28.1139C23.3503 27.13 25.3807 25.4638 26.8091 23.3259C28.2376 21.1881 29 18.6747 29 16.1035C28.9964 12.6568 27.6256 9.35233 25.1884 6.91515C22.7512 4.47796 19.4467 3.10716 16 3.10352ZM16 27.1035C13.8244 27.1035 11.6977 26.4584 9.88873 25.2497C8.07979 24.041 6.66989 22.323 5.83733 20.313C5.00477 18.303 4.78693 16.0913 5.21137 13.9575C5.63581 11.8237 6.68345 9.86372 8.22183 8.32534C9.76021 6.78696 11.7202 5.73932 13.854 5.31488C15.9878 4.89044 18.1995 5.10828 20.2095 5.94084C22.2195 6.7734 23.9375 8.1833 25.1462 9.99224C26.3549 11.8012 27 13.9279 27 16.1035C26.9967 19.0199 25.8367 21.8159 23.7745 23.878C21.7123 25.9402 18.9164 27.1002 16 27.1035ZM18.7075 11.811L14.4138 16.1035L18.7075 20.396C18.8004 20.4889 18.8741 20.5992 18.9244 20.7206C18.9747 20.842 19.0006 20.9721 19.0006 21.1035C19.0006 21.2349 18.9747 21.365 18.9244 21.4864C18.8741 21.6078 18.8004 21.7181 18.7075 21.811C18.6146 21.9039 18.5043 21.9776 18.3829 22.0279C18.2615 22.0782 18.1314 22.1041 18 22.1041C17.8686 22.1041 17.7385 22.0782 17.6171 22.0279C17.4957 21.9776 17.3854 21.9039 17.2925 21.811L12.2925 16.811C12.1995 16.7181 12.1258 16.6079 12.0754 16.4865C12.0251 16.3651 11.9992 16.2349 11.9992 16.1035C11.9992 15.9721 12.0251 15.842 12.0754 15.7206C12.1258 15.5992 12.1995 15.4889 12.2925 15.396L17.2925 10.396C17.3854 10.3031 17.4957 10.2294 17.6171 10.1791C17.7385 10.1288 17.8686 10.103 18 10.103C18.1314 10.103 18.2615 10.1288 18.3829 10.1791C18.5043 10.2294 18.6146 10.3031 18.7075 10.396C18.8004 10.4889 18.8741 10.5992 18.9244 10.7206C18.9747 10.842 19.0006 10.9721 19.0006 11.1035C19.0006 11.2349 18.9747 11.365 18.9244 11.4864C18.8741 11.6078 18.8004 11.7181 18.7075 11.811Z" fill="#BF996F"/>
</svg>
