<svg width="135" height="71" viewBox="0 0 135 71" fill="none" xmlns="http://www.w3.org/2000/svg">
<path fill-rule="evenodd" clip-rule="evenodd" d="M18.8965 11.4643C23.2137 11.4238 26.9754 12.7327 30.1817 15.3908C30.3193 15.4883 30.3838 15.6132 30.375 15.7656C29.4015 16.7439 28.3937 17.6889 27.3516 18.6005C24.631 16.3299 21.4377 15.3686 17.7715 15.7167C14.0256 16.2102 11.1369 17.9209 9.10551 20.8489C7.27056 23.7513 6.83698 26.8251 7.80472 30.0706C8.93792 33.4233 11.2407 35.7968 14.7129 37.1905C17.6692 38.2261 20.6458 38.2694 23.6426 37.3209C25.4231 36.6861 26.9231 35.6922 28.1426 34.3393C29.0402 33.174 29.632 31.8816 29.918 30.4616C29.9801 30.2033 30.0036 29.9426 29.9883 29.6796C29.9707 29.6633 29.9532 29.647 29.9356 29.6307C26.4083 29.6198 22.8809 29.609 19.3536 29.5981C19.2891 29.5818 19.2481 29.5438 19.2305 29.4841C19.2071 28.2024 19.2071 26.9207 19.2305 25.639C19.2537 25.5137 19.3357 25.4485 19.4766 25.4435C24.3931 25.4869 29.3091 25.4869 34.2246 25.4435C34.344 25.4834 34.4202 25.5595 34.4532 25.6716C34.742 27.5243 34.7069 29.3708 34.3477 31.2111C33.668 34.5423 31.8926 37.2413 29.0215 39.3086C26.6499 40.947 23.978 41.8812 21.0059 42.1109C16.2459 42.4707 12.0272 41.265 8.34965 38.4939C4.17787 35.1086 2.21499 30.8346 2.46097 25.6716C2.9071 21.5267 4.79967 18.0781 8.13871 15.3257C11.231 12.889 14.8169 11.6019 18.8965 11.4643Z" fill="#2F73F1"/>
<path fill-rule="evenodd" clip-rule="evenodd" d="M106.4 12.5069C107.877 12.5015 109.354 12.5069 110.83 12.5232C110.908 12.5445 110.949 12.5933 110.953 12.6699C110.977 22.2608 110.977 31.8518 110.953 41.4428C110.94 41.4728 110.923 41.4998 110.9 41.5243C109.389 41.5461 107.877 41.5461 106.365 41.5243C106.348 41.508 106.33 41.4917 106.313 41.4754C106.289 31.841 106.289 22.2065 106.313 12.5721C106.347 12.5537 106.377 12.5319 106.4 12.5069Z" fill="#239B40"/>
<path fill-rule="evenodd" clip-rule="evenodd" d="M69.8379 22.3803C72.488 22.3464 74.8551 23.0687 76.9395 24.5472C79.52 26.5561 80.8088 29.1358 80.8067 32.2863C80.7786 35.9511 79.1146 38.7698 75.8145 40.7422C72.9602 42.2538 69.9487 42.5797 66.7793 41.7198C63.1477 40.5692 60.7978 38.283 59.7305 34.8605C59.3796 33.4088 59.3209 31.9533 59.5547 30.4941C60.1376 27.6423 61.7372 25.4319 64.3535 23.8629C66.0463 22.9429 67.8744 22.4487 69.8379 22.3803ZM69.5215 26.3231C72.0837 26.2046 74.0233 27.1713 75.3399 29.2232C76.1485 30.7148 76.3478 32.2789 75.9375 33.9155C75.3452 35.8873 74.0268 37.2503 71.9825 38.005C69.3369 38.6795 67.1277 38.0115 65.3555 36.001C65.0071 35.5073 64.7143 34.986 64.4766 34.4369C64.1904 33.519 64.085 32.5739 64.1602 31.602C64.3258 29.9808 65.0581 28.6339 66.3575 27.5614C66.6788 27.3668 66.9952 27.1659 67.3067 26.9585C68.0172 26.6502 68.7555 26.4384 69.5215 26.3231Z" fill="#FAAF04"/>
<path fill-rule="evenodd" clip-rule="evenodd" d="M46.5295 22.4131C49.4784 22.3582 52.0448 23.2326 54.2287 25.0362C56.6305 27.2288 57.7264 29.8954 57.5158 33.0359C57.1779 36.3645 55.508 38.9332 52.506 40.7424C49.3845 42.3511 46.1382 42.59 42.7677 41.4593C39.4736 40.1764 37.3699 37.9332 36.4572 34.7304C35.9397 32.539 36.1155 30.3992 36.9845 28.311C38.6214 25.0507 41.3576 23.1227 45.1935 22.5271C45.6435 22.4818 46.0889 22.4438 46.5295 22.4131ZM46.424 26.2907C48.8083 26.2296 50.654 27.142 51.9611 29.0279C52.6878 30.2449 52.9806 31.5483 52.84 32.9382C52.5573 35.3668 51.2094 37.0501 48.797 37.9889C46.399 38.6498 44.3132 38.1717 42.5392 36.5552C40.9818 34.8503 40.4661 32.8952 40.9923 30.6898C41.7735 28.1216 43.5841 26.6553 46.424 26.2907Z" fill="#E73124"/>
<path fill-rule="evenodd" clip-rule="evenodd" d="M92.0916 22.4456C93.9865 22.3063 95.7327 22.7028 97.3299 23.635C97.7212 23.9034 98.0843 24.2021 98.4197 24.5311C98.6149 24.6501 98.7203 24.6013 98.7361 24.3844C98.6961 23.9891 98.6904 23.5926 98.7186 23.1951C98.7224 23.1186 98.7636 23.0697 98.8416 23.0484C100.236 23.0267 101.631 23.0267 103.025 23.0484C103.047 23.0729 103.065 23.1001 103.078 23.1299C103.101 29.3972 103.101 35.6646 103.078 41.9317C102.955 43.8357 102.38 45.6064 101.355 47.2432C99.8432 49.2716 97.763 50.4828 95.1151 50.8764C92.3194 51.3444 89.7298 50.8771 87.3455 49.4753C86.1168 48.6838 85.1029 47.7007 84.3045 46.5263C84.0616 46.1714 83.8506 45.8019 83.6717 45.4184C83.6161 45.2522 83.6805 45.1492 83.865 45.1088C85.0832 44.6438 86.3021 44.1821 87.5213 43.7239C87.5881 43.7422 87.6468 43.7748 87.6971 43.8217C89.0186 46.3461 91.1867 47.4377 94.201 47.0965C96.3719 46.757 97.7725 45.6109 98.4022 43.6588C98.6679 42.6786 98.7794 41.6847 98.7361 40.6772C98.7017 40.4357 98.6901 40.1913 98.701 39.944C98.6296 39.9388 98.5593 39.944 98.4901 39.9603C97.3738 41.0698 96.0027 41.7652 94.3768 42.0458C93.3924 42.1931 92.408 42.1931 91.4236 42.0458C88.2525 41.4485 85.8327 39.8681 84.1639 37.3046C82.4968 34.4677 82.2858 31.5349 83.5311 28.5065C84.7643 25.8753 86.821 24.0234 89.701 22.9507C90.4839 22.7047 91.2806 22.5363 92.0916 22.4456ZM92.9002 26.2907C95.1544 26.2191 96.8711 27.0664 98.0506 28.8324C98.9376 30.3079 99.2308 31.8829 98.9295 33.5573C98.6321 35.2338 97.7356 36.5535 96.2401 37.5164C94.7185 38.3516 93.1129 38.5145 91.4236 38.0052C89.4475 37.2704 88.1759 35.9507 87.6092 34.046C87.0794 32.0514 87.4309 30.2049 88.6639 28.5065C89.7284 27.1958 91.1406 26.4572 92.9002 26.2907Z" fill="#2F73F1"/>
<path fill-rule="evenodd" clip-rule="evenodd" d="M122.185 22.4456C125.31 22.2427 127.906 23.2202 129.973 25.3783C130.594 26.0634 131.133 26.802 131.59 27.5941C131.911 28.2991 132.234 29.0051 132.556 29.7122C132.55 29.7799 132.515 29.8288 132.451 29.8588C128.959 31.2193 125.455 32.5553 121.939 33.8668C120.745 34.3331 119.556 34.8056 118.371 35.2843C118.347 35.3276 118.347 35.3713 118.371 35.4146C119.711 37.6132 121.744 38.5526 124.471 38.2333C126.216 37.9504 127.581 37.1302 128.566 35.7731C128.658 35.6522 128.781 35.614 128.935 35.659C130.041 36.3694 131.16 37.0592 132.293 37.7282C132.319 37.8194 132.308 37.9064 132.258 37.9889C129.768 41.0294 126.458 42.4035 122.326 42.1109C118.631 41.6811 115.918 39.9489 114.187 36.9135C113.057 34.6254 112.775 32.2467 113.344 29.7773C113.956 27.223 115.427 25.219 117.756 23.7653C119.123 23.0033 120.599 22.5634 122.185 22.4456ZM122.994 26.1929C123.917 26.1951 124.82 26.4069 125.701 26.8283C126.199 27.1162 126.603 27.4909 126.914 27.9525C126.976 28.0573 127.029 28.1659 127.072 28.2784C127.007 28.3335 126.936 28.3824 126.861 28.425C123.818 29.596 120.771 30.7691 117.721 31.9443C117.685 31.966 117.65 31.966 117.615 31.9443C117.509 30.9251 117.726 29.953 118.265 29.0279C119.315 27.3328 120.891 26.3878 122.994 26.1929Z" fill="#E73124"/>
<path fill-rule="evenodd" clip-rule="evenodd" d="M37.5995 49.1658C38.3996 49.1905 38.8567 49.5708 38.9706 50.3063C38.8904 51.0049 38.4745 51.3959 37.7225 51.4793C36.8331 51.3506 36.4348 50.8726 36.5272 50.0456C36.6942 49.5483 37.0518 49.2551 37.5995 49.1658Z" fill="#6B6D6F"/>
<path fill-rule="evenodd" clip-rule="evenodd" d="M9.33387 49.5242C11.1981 49.5092 13.0613 49.5255 14.9237 49.5731C16.8661 49.8963 17.8857 50.9716 17.9823 52.799C17.9365 54.3081 17.1514 55.3182 15.6268 55.8295C15.6517 55.9116 15.681 55.9931 15.7147 56.0739C16.4442 57.1981 17.1825 58.3167 17.9296 59.4302C17.9557 59.4934 17.9498 59.553 17.912 59.6094C17.0652 59.6413 16.2214 59.6306 15.3807 59.5768C15.3322 59.5139 15.2795 59.4543 15.2225 59.3976C14.5869 58.317 13.9424 57.2417 13.2889 56.1716C13.2572 56.1325 13.2162 56.1055 13.1659 56.0902C12.6386 56.0683 12.1112 56.0683 11.5839 56.0902C11.5428 56.1065 11.5136 56.1335 11.496 56.1716C11.4899 57.3134 11.4723 58.4539 11.4432 59.5931C10.7287 59.6312 10.0139 59.6364 9.29871 59.6094C9.27031 59.5993 9.24686 59.583 9.2284 59.5605C9.18168 56.2264 9.18168 52.8919 9.2284 49.5568C9.27379 49.5646 9.30894 49.5535 9.33387 49.5242ZM11.619 51.4467C12.4746 51.4412 13.33 51.4467 14.1854 51.463C15.1847 51.5823 15.6475 52.1089 15.5741 53.0434C15.4194 53.6782 14.9917 54.0418 14.2909 54.135C13.3753 54.1617 12.4613 54.1565 11.5487 54.1187C11.5117 54.0881 11.4882 54.0503 11.4784 54.0047C11.5149 53.2204 11.5149 52.4383 11.4784 51.6585C11.4862 51.5621 11.5331 51.4914 11.619 51.4467Z" fill="#6B6D6F"/>
<path fill-rule="evenodd" clip-rule="evenodd" d="M77.0099 51.8052C77.0676 51.7984 77.1203 51.8091 77.1681 51.8378C77.6262 52.6215 78.1008 53.398 78.5919 54.1677C79.513 54.3589 80.4387 54.5326 81.3693 54.689C81.453 54.7617 81.4589 54.8432 81.3869 54.9334C81.3151 54.9891 81.2564 55.0543 81.2111 55.1289C80.6816 55.6412 80.1543 56.1518 79.629 56.6604C79.5939 56.7149 79.5587 56.769 79.5236 56.8234C79.5865 57.6895 79.686 58.553 79.8224 59.4139C79.8333 59.5609 79.763 59.615 79.6115 59.5768C78.7691 59.2002 77.9198 58.8362 77.0626 58.4852C76.2323 58.8238 75.4061 59.1767 74.5841 59.5443C74.5265 59.5638 74.4681 59.5801 74.4083 59.5931C74.3679 59.5827 74.3387 59.5612 74.3205 59.528C74.3971 58.6557 74.5085 57.7866 74.6544 56.9211C74.4516 56.6106 74.1999 56.3388 73.8986 56.1065C73.5249 55.7057 73.1382 55.3147 72.7384 54.9334C72.6664 54.8432 72.6723 54.7617 72.756 54.689C73.6866 54.5362 74.6126 54.3622 75.5333 54.1677C75.9078 53.6417 76.2417 53.0933 76.5353 52.5221C76.6854 52.2758 76.8436 52.0366 77.0099 51.8052Z" fill="#FAAF04"/>
<path fill-rule="evenodd" clip-rule="evenodd" d="M98.0333 51.8052C98.091 51.7984 98.1437 51.8091 98.1915 51.8378C98.6169 52.5254 99.0272 53.2204 99.422 53.9233C99.4733 54.0295 99.5496 54.1162 99.6505 54.184C100.562 54.3625 101.476 54.531 102.393 54.689C102.476 54.7617 102.482 54.8432 102.41 54.9334C102.328 54.9989 102.257 55.0752 102.199 55.1615C101.62 55.6985 101.069 56.2525 100.547 56.8234C100.612 57.6947 100.711 58.5634 100.846 59.4302C100.846 59.5661 100.775 59.615 100.635 59.5769C99.7953 59.2041 98.9516 58.8401 98.1036 58.4852C97.2398 58.8313 96.3845 59.195 95.5372 59.5769C95.4599 59.6036 95.3955 59.5873 95.3438 59.528C95.4504 58.6276 95.5442 57.7263 95.6251 56.8234C95.0053 56.1726 94.3725 55.532 93.7267 54.9008C93.6943 54.8174 93.7119 54.7467 93.7794 54.689C94.6829 54.5313 95.5854 54.3684 96.4864 54.2002C96.5156 54.1706 96.5508 54.1488 96.5919 54.1351C97.0626 53.352 97.5432 52.5755 98.0333 51.8052Z" fill="#FAAF04"/>
<path fill-rule="evenodd" clip-rule="evenodd" d="M119.022 51.8052C119.091 51.7974 119.155 51.8081 119.215 51.8378C119.516 52.3165 119.797 52.8052 120.059 53.3041C120.23 53.6046 120.423 53.8923 120.639 54.1676C121.559 54.3622 122.485 54.5359 123.416 54.689C123.483 54.748 123.5 54.8184 123.469 54.9008C122.832 55.5343 122.199 56.1642 121.57 56.7908C121.635 57.6729 121.735 58.5527 121.869 59.4302C121.864 59.5605 121.793 59.6094 121.658 59.5768C120.812 59.1982 119.963 58.8345 119.109 58.4852C118.253 58.8362 117.403 59.1998 116.561 59.5768C116.42 59.615 116.35 59.5661 116.35 59.4302C116.482 58.5634 116.581 57.6944 116.649 56.8234C116.029 56.1726 115.396 55.532 114.75 54.9008C114.718 54.8174 114.735 54.7467 114.803 54.689C115.705 54.5261 116.607 54.3632 117.51 54.2002C117.547 54.1553 117.594 54.1227 117.65 54.1025C118.104 53.3348 118.561 52.569 119.022 51.8052Z" fill="#FAAF04"/>
<path fill-rule="evenodd" clip-rule="evenodd" d="M87.4864 51.8051C87.5722 51.7993 87.6481 51.8208 87.7149 51.8703C88.0904 52.523 88.4655 53.1747 88.8399 53.8254C88.9064 53.9538 88.9943 54.0679 89.1036 54.1676C90.0384 54.3569 90.976 54.5361 91.9161 54.7052C91.9562 54.7678 91.9622 54.833 91.9337 54.9008C91.4893 55.3345 91.0439 55.7688 90.5977 56.2042C90.3731 56.4144 90.1741 56.6425 90.0001 56.8885C90.0975 57.6695 90.2029 58.4516 90.3165 59.2346C90.3443 59.3516 90.3383 59.4657 90.2989 59.5768C90.2522 59.5986 90.2051 59.5986 90.1583 59.5768C89.3015 59.2099 88.4402 58.8459 87.5743 58.4852C86.7418 58.8247 85.9156 59.1779 85.0958 59.5442C85.0058 59.5807 84.9179 59.5862 84.8321 59.5605C84.9031 58.6826 85.0142 57.8084 85.1661 56.9374C85.1485 56.8885 85.131 56.8396 85.1134 56.7907C84.4806 56.1608 83.8477 55.5306 83.2149 54.9008C83.1826 54.8173 83.2002 54.7466 83.2677 54.689C84.1976 54.5306 85.1236 54.3566 86.045 54.1676C86.1424 54.09 86.2187 53.9975 86.2735 53.8906C86.6694 53.192 87.0737 52.4969 87.4864 51.8051Z" fill="#FAAF04"/>
<path fill-rule="evenodd" clip-rule="evenodd" d="M108.545 51.805C108.618 51.804 108.683 51.8258 108.738 51.8701C109.115 52.5248 109.49 53.1765 109.863 53.8253C109.93 53.9536 110.018 54.0677 110.127 54.1674C111.049 54.3564 111.975 54.5304 112.904 54.6888C112.972 54.7465 112.989 54.8172 112.957 54.9006C112.477 55.3675 111.996 55.8348 111.516 56.3018C111.339 56.4771 111.174 56.6615 111.024 56.8557C111.11 57.6495 111.215 58.4423 111.34 59.2345C111.368 59.3514 111.362 59.4655 111.322 59.5766C111.238 59.5922 111.155 59.5815 111.076 59.544C110.257 59.1781 109.431 58.8252 108.598 58.485C107.765 58.8245 106.939 59.1778 106.119 59.544C106.031 59.5906 105.943 59.5962 105.856 59.5603C105.916 58.6812 106.027 57.8069 106.19 56.9372C106.13 56.7951 106.042 56.67 105.926 56.5624C105.356 56.016 104.793 55.462 104.238 54.9006C104.206 54.8172 104.224 54.7465 104.291 54.6888C105.221 54.5304 106.147 54.3564 107.068 54.1674C107.11 54.1293 107.15 54.0915 107.191 54.0534C107.621 53.3329 108.043 52.6053 108.457 51.8701C108.492 51.8516 108.521 51.8301 108.545 51.805Z" fill="#FAAF04"/>
<path fill-rule="evenodd" clip-rule="evenodd" d="M22.4475 52.0984C24.5637 52.0274 25.9524 52.9179 26.6135 54.7704C26.7381 55.2576 26.8025 55.7519 26.8069 56.2531C26.8127 56.3482 26.7892 56.4349 26.7365 56.5137C24.827 56.5515 22.9169 56.5786 21.0061 56.5952C20.9613 56.7272 20.9672 56.8575 21.0237 56.9862C21.4252 57.8788 22.1518 58.3349 23.2033 58.3548C23.9517 58.3187 24.6255 58.0961 25.2248 57.6868C25.3235 57.6568 25.3997 57.6839 25.4533 57.7683C25.6703 58.1052 25.9046 58.4311 26.1565 58.7459C26.1788 58.8156 26.1671 58.8808 26.1213 58.9414C25.5665 59.3422 24.9395 59.6084 24.2405 59.7397C23.0166 60.0063 21.8447 59.8759 20.7248 59.3487C19.5213 58.6442 18.8709 57.6285 18.7737 56.3019C18.6612 54.7127 19.3116 53.48 20.7248 52.6035C21.2695 52.3399 21.8437 52.1714 22.4475 52.0984ZM22.553 53.6299C23.5549 53.5319 24.2638 53.901 24.6799 54.7378C24.7589 54.8969 24.7765 55.0598 24.7326 55.2266C23.4906 55.2647 22.2484 55.27 21.0061 55.2429C20.9553 55.2061 20.9319 55.1572 20.9358 55.0963C21.1307 54.2748 21.6697 53.786 22.553 53.6299Z" fill="#6B6D6F"/>
<path fill-rule="evenodd" clip-rule="evenodd" d="M43.9982 52.0983C46.3308 52.0498 47.7546 53.0817 48.2696 55.1939C48.3066 55.541 48.3357 55.8887 48.3575 56.2367C48.3639 56.337 48.3403 56.4293 48.2872 56.5136C47.3398 56.5511 46.3905 56.5674 45.4396 56.5625C44.5185 56.5622 43.5988 56.5514 42.6798 56.5299C42.5184 56.5596 42.4601 56.6463 42.504 56.7906C42.8468 57.7975 43.5911 58.3189 44.7364 58.3547C45.4807 58.3221 46.1487 58.0996 46.7404 57.6867C46.8022 57.6607 46.8609 57.6662 46.9161 57.703C47.1988 58.0585 47.4681 58.4222 47.7247 58.7946C47.6453 58.9442 47.5282 59.0638 47.3732 59.1531C46.0685 59.8403 44.6858 60.0247 43.2247 59.707C41.5063 59.1883 40.5395 58.0966 40.3243 56.4322C40.1742 54.7931 40.8246 53.5171 42.2755 52.6034C42.8187 52.3404 43.3931 52.1723 43.9982 52.0983ZM44.1036 53.6298C44.7909 53.5604 45.3826 53.7452 45.879 54.1838C46.1047 54.4481 46.2513 54.7465 46.3185 55.0799C46.3139 55.133 46.2963 55.1819 46.2657 55.2265C45.0202 55.2643 43.7721 55.2699 42.5216 55.2428C42.477 54.9681 42.5416 54.7126 42.715 54.4771C43.0366 53.9941 43.4996 53.7116 44.1036 53.6298Z" fill="#6B6D6F"/>
<path fill-rule="evenodd" clip-rule="evenodd" d="M64.9863 52.0983C66.2797 52.0185 67.4515 52.3173 68.502 52.9944C68.5512 53.029 68.5863 53.0723 68.6074 53.1248C68.3631 53.5614 68.0878 53.9795 67.7812 54.3793C67.1161 53.8387 66.337 53.5562 65.4434 53.5321C65.0707 53.5503 64.7307 53.6536 64.4238 53.8416C64.1014 54.1277 64.1014 54.4099 64.4238 54.6889C64.5912 54.7733 64.767 54.8384 64.9512 54.8844C65.8779 55.0366 66.78 55.2646 67.6582 55.5687C68.6095 56.0777 69.0138 56.8434 68.8711 57.8659C68.7108 58.6451 68.2362 59.1935 67.4473 59.5115C65.797 60.0502 64.1914 59.9524 62.6309 59.2182C62.4491 59.1176 62.2733 59.009 62.1035 58.8924C62.0269 58.8435 61.9801 58.7783 61.9629 58.6969C62.1889 58.316 62.4291 57.9412 62.6836 57.5727C62.7152 57.513 62.762 57.4697 62.8242 57.4423C63.6441 58.0178 64.5697 58.3437 65.6016 58.4199C66.0642 58.4254 66.4629 58.2843 66.7969 57.9963C67.0458 57.4642 66.8644 57.122 66.252 56.9698C65.5738 56.8219 64.8942 56.6808 64.2129 56.5462C63.6954 56.4149 63.2268 56.1979 62.8066 55.8945C62.2297 55.2998 62.048 54.6103 62.2617 53.8253C62.6105 53.0029 63.2489 52.476 64.1777 52.245C64.4516 52.1931 64.7212 52.1443 64.9863 52.0983Z" fill="#6B6D6F"/>
<path fill-rule="evenodd" clip-rule="evenodd" d="M27.2637 52.359C27.987 52.3482 28.7078 52.3593 29.4258 52.3915C30.092 54 30.7541 55.6074 31.4121 57.2142C31.4885 57.2595 31.553 57.2487 31.6055 57.1816C32.2331 55.5673 32.8952 53.9651 33.5918 52.3753C34.3183 52.359 35.0448 52.3534 35.7715 52.359C34.7405 54.7638 33.6917 57.164 32.625 59.5603C32.6074 59.5766 32.5898 59.5929 32.5723 59.6092C31.8691 59.6311 31.166 59.6311 30.4629 59.6092C30.4307 59.5972 30.4014 59.5809 30.375 59.5603C29.4077 57.3582 28.435 55.1639 27.457 52.9781C27.3716 52.7767 27.3072 52.5701 27.2637 52.359Z" fill="#6B6D6F"/>
<path fill-rule="evenodd" clip-rule="evenodd" d="M36.7557 52.359C37.444 52.3482 38.1296 52.3593 38.8123 52.3915C38.8359 54.7703 38.8359 57.149 38.8123 59.5278C38.7831 59.5548 38.7536 59.5822 38.7244 59.6092C38.0716 59.6363 37.4212 59.6307 36.7732 59.5929C36.7557 57.1816 36.7497 54.7703 36.7557 52.359Z" fill="#6B6D6F"/>
<path fill-rule="evenodd" clip-rule="evenodd" d="M49.0254 52.359C49.7254 52.3482 50.4225 52.3593 51.1172 52.3915C51.5862 53.9341 52.0548 55.4767 52.5234 57.0187C52.5477 57.0467 52.5769 57.0682 52.6113 57.0839C52.6612 57.0239 52.7024 56.9587 52.7344 56.8883C53.2392 55.4533 53.7434 54.0195 54.2461 52.5871C54.2827 52.5137 54.3238 52.4434 54.3691 52.3753C54.9752 52.3485 55.5789 52.3537 56.1797 52.3915C56.3977 52.9439 56.6086 53.4978 56.8125 54.0534C57.1416 55.0104 57.4696 55.9662 57.7969 56.9209C57.831 56.9907 57.8837 57.0451 57.9551 57.0839C58.0131 56.9679 58.0658 56.8483 58.1133 56.7254C58.5323 55.278 58.9658 53.8335 59.4141 52.3915C60.1204 52.3593 60.8295 52.3482 61.541 52.359C60.77 54.7038 60.0026 57.05 59.2383 59.3974C59.2017 59.4707 59.1606 59.5411 59.1152 59.6092C58.4237 59.6311 57.7325 59.6311 57.041 59.6092C57.0059 59.5822 56.9707 59.5548 56.9355 59.5278C56.404 57.9894 55.8823 56.4471 55.3711 54.9006C55.3581 54.8547 55.3289 54.8221 55.2832 54.8029C55.2097 54.8658 55.157 54.9417 55.125 55.031C54.6191 56.5325 54.115 58.0314 53.6133 59.5278C53.5841 59.5548 53.5546 59.5822 53.5254 59.6092C52.8339 59.6311 52.1427 59.6311 51.4512 59.6092C51.41 59.5711 51.3693 59.5333 51.3281 59.4952C50.5378 57.1399 49.7584 54.783 48.9902 52.4241C49.0029 52.402 49.0148 52.3801 49.0254 52.359Z" fill="#6B6D6F"/>
</svg>
