<svg width="32" height="33" viewBox="0 0 32 33" fill="none" xmlns="http://www.w3.org/2000/svg">
<path opacity="0.2" d="M13.5 9.10352V18.1035H5C4.73478 18.1035 4.48043 17.9982 4.29289 17.8106C4.10536 17.6231 4 17.3687 4 17.1035V9.10352C4 8.8383 4.10536 8.58395 4.29289 8.39641C4.48043 8.20887 4.73478 8.10352 5 8.10352H12.5C12.7652 8.10352 13.0196 8.20887 13.2071 8.39641C13.3946 8.58395 13.5 8.8383 13.5 9.10352ZM27 8.10352H19.5C19.2348 8.10352 18.9804 8.20887 18.7929 8.39641C18.6054 8.58395 18.5 8.8383 18.5 9.10352V17.1035C18.5 17.3687 18.6054 17.6231 18.7929 17.8106C18.9804 17.9982 19.2348 18.1035 19.5 18.1035H28V9.10352C28 8.8383 27.8946 8.58395 27.7071 8.39641C27.5196 8.20887 27.2652 8.10352 27 8.10352Z" fill="black"/>
<path d="M12.5 7.10352H5C4.46957 7.10352 3.96086 7.31423 3.58579 7.6893C3.21071 8.06437 3 8.57308 3 9.10352V17.1035C3 17.6339 3.21071 18.1427 3.58579 18.5177C3.96086 18.8928 4.46957 19.1035 5 19.1035H12.5V20.1035C12.5 21.1644 12.0786 22.1818 11.3284 22.9319C10.5783 23.6821 9.56087 24.1035 8.5 24.1035C8.23478 24.1035 7.98043 24.2089 7.79289 24.3964C7.60536 24.5839 7.5 24.8383 7.5 25.1035C7.5 25.3687 7.60536 25.6231 7.79289 25.8106C7.98043 25.9982 8.23478 26.1035 8.5 26.1035C10.0908 26.1019 11.616 25.4692 12.7408 24.3443C13.8657 23.2195 14.4983 21.6943 14.5 20.1035V9.10352C14.5 8.57308 14.2893 8.06437 13.9142 7.6893C13.5391 7.31423 13.0304 7.10352 12.5 7.10352ZM12.5 17.1035H5V9.10352H12.5V17.1035ZM27 7.10352H19.5C18.9696 7.10352 18.4609 7.31423 18.0858 7.6893C17.7107 8.06437 17.5 8.57308 17.5 9.10352V17.1035C17.5 17.6339 17.7107 18.1427 18.0858 18.5177C18.4609 18.8928 18.9696 19.1035 19.5 19.1035H27V20.1035C27 21.1644 26.5786 22.1818 25.8284 22.9319C25.0783 23.6821 24.0609 24.1035 23 24.1035C22.7348 24.1035 22.4804 24.2089 22.2929 24.3964C22.1054 24.5839 22 24.8383 22 25.1035C22 25.3687 22.1054 25.6231 22.2929 25.8106C22.4804 25.9982 22.7348 26.1035 23 26.1035C24.5908 26.1019 26.116 25.4692 27.2408 24.3443C28.3657 23.2195 28.9983 21.6943 29 20.1035V9.10352C29 8.57308 28.7893 8.06437 28.4142 7.6893C28.0391 7.31423 27.5304 7.10352 27 7.10352ZM27 17.1035H19.5V9.10352H27V17.1035Z" fill="black"/>
</svg>
