<svg width="136" height="25" viewBox="0 0 136 25" fill="none" xmlns="http://www.w3.org/2000/svg">
<path opacity="0.2" d="M17.2619 13.9505C17.1591 14.0408 17.0827 14.1573 17.0407 14.2875C16.9988 14.4177 16.9929 14.5569 17.0237 14.6902L18.2912 20.1783C18.3247 20.3217 18.3153 20.4717 18.2641 20.6097C18.213 20.7477 18.1223 20.8677 18.0035 20.9545C17.8846 21.0414 17.7428 21.0913 17.5958 21.0982C17.4488 21.105 17.303 21.0685 17.1766 20.993L12.3859 18.0868C12.2695 18.016 12.1359 17.9786 11.9997 17.9786C11.8634 17.9786 11.7298 18.016 11.6134 18.0868L6.8228 20.993C6.6964 21.0685 6.55059 21.105 6.40355 21.0982C6.25651 21.0913 6.11473 21.0414 5.99589 20.9545C5.87704 20.8677 5.78639 20.7477 5.73522 20.6097C5.68404 20.4717 5.67462 20.3217 5.70811 20.1783L6.97561 14.6902C7.00642 14.5569 7.00055 14.4177 6.95863 14.2875C6.9167 14.1573 6.84028 14.0408 6.73749 13.9505L2.50843 10.2615C2.39536 10.1654 2.31335 10.0379 2.27275 9.89517C2.23216 9.75245 2.23481 9.60089 2.28038 9.45968C2.32594 9.31847 2.41237 9.19394 2.52873 9.10186C2.64509 9.00978 2.78615 8.95429 2.93405 8.9424L8.50843 8.46053C8.64443 8.44841 8.77454 8.3994 8.88474 8.31878C8.99493 8.23816 9.08103 8.12898 9.13374 8.00303L11.3116 2.81303C11.3697 2.67884 11.4658 2.5646 11.5881 2.48434C11.7104 2.40409 11.8534 2.36133 11.9997 2.36133C12.1459 2.36133 12.289 2.40409 12.4112 2.48434C12.5335 2.5646 12.6296 2.67884 12.6878 2.81303L14.8656 8.00303C14.9183 8.12898 15.0044 8.23816 15.1146 8.31878C15.2248 8.3994 15.3549 8.44841 15.4909 8.46053L21.0653 8.9424C21.2132 8.95429 21.3543 9.00978 21.4706 9.10186C21.587 9.19394 21.6734 9.31847 21.719 9.45968C21.7645 9.60089 21.7672 9.75245 21.7266 9.89517C21.686 10.0379 21.604 10.1654 21.4909 10.2615L17.2619 13.9505Z" fill="black"/>
<path d="M22.4248 9.22427C22.334 8.94431 22.1628 8.69727 21.9326 8.5139C21.7024 8.33053 21.4233 8.21894 21.1301 8.19302L15.5623 7.71302L13.3798 2.52302C13.2662 2.25069 13.0745 2.01807 12.829 1.85445C12.5834 1.69082 12.2949 1.60352 11.9998 1.60352C11.7047 1.60352 11.4163 1.69082 11.1707 1.85445C10.9251 2.01807 10.7335 2.25069 10.6198 2.52302L8.44389 7.71302L2.86951 8.19583C2.57517 8.22056 2.29468 8.33165 2.06322 8.51516C1.83176 8.69866 1.65964 8.94642 1.56842 9.22737C1.47721 9.50831 1.47098 9.80993 1.5505 10.0944C1.63003 10.3789 1.79177 10.6335 2.01545 10.8265L6.24451 14.5221L4.97701 20.0102C4.90999 20.2974 4.92911 20.598 5.03199 20.8744C5.13488 21.1508 5.31695 21.3907 5.55545 21.5642C5.79394 21.7376 6.07829 21.8369 6.37293 21.8497C6.66756 21.8624 6.95942 21.7881 7.21201 21.6358L11.9933 18.7296L16.7848 21.6358C17.0374 21.7881 17.3293 21.8624 17.6239 21.8497C17.9186 21.8369 18.2029 21.7376 18.4414 21.5642C18.6799 21.3907 18.862 21.1508 18.9648 20.8744C19.0677 20.598 19.0868 20.2974 19.0198 20.0102L17.7533 14.5165L21.9814 10.8265C22.205 10.6329 22.3665 10.3775 22.4454 10.0924C22.5243 9.80733 22.5171 9.50529 22.4248 9.22427ZM20.9979 9.69302L16.7698 13.383C16.564 13.562 16.411 13.7937 16.327 14.0532C16.2431 14.3128 16.2316 14.5902 16.2936 14.8558L17.5639 20.3533L12.7761 17.4471C12.5425 17.3048 12.2743 17.2296 12.0008 17.2296C11.7273 17.2296 11.459 17.3048 11.2255 17.4471L6.4442 20.3533L7.70608 14.8596C7.76809 14.594 7.75652 14.3165 7.6726 14.057C7.58869 13.7975 7.43561 13.5658 7.22983 13.3868L2.99983 9.69864C2.99948 9.69584 2.99948 9.69301 2.99983 9.6902L8.57233 9.20833C8.84439 9.18435 9.10474 9.08654 9.3253 8.92546C9.54586 8.76438 9.71826 8.54613 9.82389 8.29427L11.9998 3.11083L14.1748 8.29427C14.2805 8.54613 14.4529 8.76438 14.6734 8.92546C14.894 9.08654 15.1543 9.18435 15.4264 9.20833L20.9998 9.6902C20.9998 9.6902 20.9998 9.69583 20.9998 9.69677L20.9979 9.69302Z" fill="black"/>
<path opacity="0.2" d="M45.2619 13.9505C45.1591 14.0408 45.0827 14.1573 45.0407 14.2875C44.9988 14.4177 44.9929 14.5569 45.0237 14.6902L46.2912 20.1783C46.3247 20.3217 46.3153 20.4717 46.2641 20.6097C46.213 20.7477 46.1223 20.8677 46.0035 20.9545C45.8846 21.0414 45.7428 21.0913 45.5958 21.0982C45.4488 21.105 45.303 21.0685 45.1766 20.993L40.3859 18.0868C40.2695 18.016 40.1359 17.9786 39.9997 17.9786C39.8634 17.9786 39.7298 18.016 39.6134 18.0868L34.8228 20.993C34.6964 21.0685 34.5506 21.105 34.4036 21.0982C34.2565 21.0913 34.1147 21.0414 33.9959 20.9545C33.877 20.8677 33.7864 20.7477 33.7352 20.6097C33.684 20.4717 33.6746 20.3217 33.7081 20.1783L34.9756 14.6902C35.0064 14.5569 35.0006 14.4177 34.9586 14.2875C34.9167 14.1573 34.8403 14.0408 34.7375 13.9505L30.5084 10.2615C30.3954 10.1654 30.3133 10.0379 30.2728 9.89517C30.2322 9.75245 30.2348 9.60089 30.2804 9.45968C30.3259 9.31847 30.4124 9.19394 30.5287 9.10186C30.6451 9.00978 30.7861 8.95429 30.9341 8.9424L36.5084 8.46053C36.6444 8.44841 36.7745 8.3994 36.8847 8.31878C36.9949 8.23816 37.081 8.12898 37.1337 8.00303L39.3116 2.81303C39.3697 2.67884 39.4658 2.5646 39.5881 2.48434C39.7104 2.40409 39.8534 2.36133 39.9997 2.36133C40.1459 2.36133 40.289 2.40409 40.4112 2.48434C40.5335 2.5646 40.6296 2.67884 40.6878 2.81303L42.8656 8.00303C42.9183 8.12898 43.0044 8.23816 43.1146 8.31878C43.2248 8.3994 43.3549 8.44841 43.4909 8.46053L49.0653 8.9424C49.2132 8.95429 49.3543 9.00978 49.4706 9.10186C49.587 9.19394 49.6734 9.31847 49.719 9.45968C49.7645 9.60089 49.7672 9.75245 49.7266 9.89517C49.686 10.0379 49.604 10.1654 49.4909 10.2615L45.2619 13.9505Z" fill="black"/>
<path d="M50.4248 9.22427C50.334 8.94431 50.1628 8.69727 49.9326 8.5139C49.7024 8.33053 49.4233 8.21894 49.1301 8.19302L43.5623 7.71302L41.3798 2.52302C41.2662 2.25069 41.0745 2.01807 40.829 1.85445C40.5834 1.69082 40.2949 1.60352 39.9998 1.60352C39.7047 1.60352 39.4163 1.69082 39.1707 1.85445C38.9251 2.01807 38.7335 2.25069 38.6198 2.52302L36.4439 7.71302L30.8695 8.19583C30.5752 8.22056 30.2947 8.33165 30.0632 8.51516C29.8318 8.69866 29.6596 8.94642 29.5684 9.22737C29.4772 9.50831 29.471 9.80993 29.5505 10.0944C29.63 10.3789 29.7918 10.6335 30.0155 10.8265L34.2445 14.5221L32.977 20.0102C32.91 20.2974 32.9291 20.598 33.032 20.8744C33.1349 21.1508 33.3169 21.3907 33.5554 21.5642C33.7939 21.7376 34.0783 21.8369 34.3729 21.8497C34.6676 21.8624 34.9594 21.7881 35.212 21.6358L39.9933 18.7296L44.7848 21.6358C45.0374 21.7881 45.3293 21.8624 45.6239 21.8497C45.9186 21.8369 46.2029 21.7376 46.4414 21.5642C46.6799 21.3907 46.862 21.1508 46.9648 20.8744C47.0677 20.598 47.0868 20.2974 47.0198 20.0102L45.7533 14.5165L49.9814 10.8265C50.205 10.6329 50.3665 10.3775 50.4454 10.0924C50.5243 9.80733 50.5171 9.50529 50.4248 9.22427ZM48.9979 9.69302L44.7698 13.383C44.564 13.562 44.411 13.7937 44.327 14.0532C44.2431 14.3128 44.2316 14.5902 44.2936 14.8558L45.5639 20.3533L40.7761 17.4471C40.5425 17.3048 40.2743 17.2296 40.0008 17.2296C39.7273 17.2296 39.459 17.3048 39.2255 17.4471L34.4442 20.3533L35.7061 14.8596C35.7681 14.594 35.7565 14.3165 35.6726 14.057C35.5887 13.7975 35.4356 13.5658 35.2298 13.3868L30.9998 9.69864C30.9995 9.69584 30.9995 9.69301 30.9998 9.6902L36.5723 9.20833C36.8444 9.18435 37.1047 9.08654 37.3253 8.92546C37.5459 8.76438 37.7183 8.54613 37.8239 8.29427L39.9998 3.11083L42.1748 8.29427C42.2805 8.54613 42.4529 8.76438 42.6734 8.92546C42.894 9.08654 43.1543 9.18435 43.4264 9.20833L48.9998 9.6902C48.9998 9.6902 48.9998 9.69583 48.9998 9.69677L48.9979 9.69302Z" fill="black"/>
<path opacity="0.2" d="M73.2624 13.9505C73.1596 14.0408 73.0831 14.1573 73.0412 14.2875C72.9993 14.4177 72.9934 14.5569 73.0242 14.6902L74.2917 20.1783C74.3252 20.3217 74.3158 20.4717 74.2646 20.6097C74.2135 20.7477 74.1228 20.8677 74.004 20.9545C73.8851 21.0414 73.7433 21.0913 73.5963 21.0982C73.4492 21.105 73.3034 21.0685 73.177 20.993L68.3864 18.0868C68.27 18.016 68.1364 17.9786 68.0002 17.9786C67.8639 17.9786 67.7303 18.016 67.6139 18.0868L62.8233 20.993C62.6969 21.0685 62.5511 21.105 62.404 21.0982C62.257 21.0913 62.1152 21.0414 61.9964 20.9545C61.8775 20.8677 61.7869 20.7477 61.7357 20.6097C61.6845 20.4717 61.6751 20.3217 61.7086 20.1783L62.9761 14.6902C63.0069 14.5569 63.001 14.4177 62.9591 14.2875C62.9172 14.1573 62.8408 14.0408 62.738 13.9505L58.5089 10.2615C58.3959 10.1654 58.3138 10.0379 58.2732 9.89517C58.2326 9.75245 58.2353 9.60089 58.2809 9.45968C58.3264 9.31847 58.4129 9.19394 58.5292 9.10186C58.6456 9.00978 58.7866 8.95429 58.9345 8.9424L64.5089 8.46053C64.6449 8.44841 64.775 8.3994 64.8852 8.31878C64.9954 8.23816 65.0815 8.12898 65.1342 8.00303L67.312 2.81303C67.3702 2.67884 67.4663 2.5646 67.5886 2.48434C67.7109 2.40409 67.8539 2.36133 68.0002 2.36133C68.1464 2.36133 68.2895 2.40409 68.4117 2.48434C68.534 2.5646 68.6301 2.67884 68.6883 2.81303L70.8661 8.00303C70.9188 8.12898 71.0049 8.23816 71.1151 8.31878C71.2253 8.3994 71.3554 8.44841 71.4914 8.46053L77.0658 8.9424C77.2137 8.95429 77.3548 9.00978 77.4711 9.10186C77.5875 9.19394 77.6739 9.31847 77.7195 9.45968C77.765 9.60089 77.7677 9.75245 77.7271 9.89517C77.6865 10.0379 77.6045 10.1654 77.4914 10.2615L73.2624 13.9505Z" fill="black"/>
<path d="M78.4248 9.22427C78.334 8.94431 78.1628 8.69727 77.9326 8.5139C77.7024 8.33053 77.4233 8.21894 77.1301 8.19302L71.5623 7.71302L69.3798 2.52302C69.2662 2.25069 69.0745 2.01807 68.829 1.85445C68.5834 1.69082 68.2949 1.60352 67.9998 1.60352C67.7047 1.60352 67.4163 1.69082 67.1707 1.85445C66.9251 2.01807 66.7335 2.25069 66.6198 2.52302L64.4439 7.71302L58.8695 8.19583C58.5752 8.22056 58.2947 8.33165 58.0632 8.51516C57.8318 8.69866 57.6596 8.94642 57.5684 9.22737C57.4772 9.50831 57.471 9.80993 57.5505 10.0944C57.63 10.3789 57.7918 10.6335 58.0155 10.8265L62.2445 14.5221L60.977 20.0102C60.91 20.2974 60.9291 20.598 61.032 20.8744C61.1349 21.1508 61.3169 21.3907 61.5554 21.5642C61.7939 21.7376 62.0783 21.8369 62.3729 21.8497C62.6676 21.8624 62.9594 21.7881 63.212 21.6358L67.9933 18.7296L72.7848 21.6358C73.0374 21.7881 73.3293 21.8624 73.6239 21.8497C73.9186 21.8369 74.2029 21.7376 74.4414 21.5642C74.6799 21.3907 74.862 21.1508 74.9648 20.8744C75.0677 20.598 75.0868 20.2974 75.0198 20.0102L73.7533 14.5165L77.9814 10.8265C78.205 10.6329 78.3665 10.3775 78.4454 10.0924C78.5243 9.80733 78.5171 9.50529 78.4248 9.22427ZM76.9979 9.69302L72.7698 13.383C72.564 13.562 72.411 13.7937 72.327 14.0532C72.2431 14.3128 72.2316 14.5902 72.2936 14.8558L73.5639 20.3533L68.7761 17.4471C68.5425 17.3048 68.2743 17.2296 68.0008 17.2296C67.7273 17.2296 67.459 17.3048 67.2255 17.4471L62.4442 20.3533L63.7061 14.8596C63.7681 14.594 63.7565 14.3165 63.6726 14.057C63.5887 13.7975 63.4356 13.5658 63.2298 13.3868L58.9998 9.69864C58.9995 9.69584 58.9995 9.69301 58.9998 9.6902L64.5723 9.20833C64.8444 9.18435 65.1047 9.08654 65.3253 8.92546C65.5459 8.76438 65.7183 8.54613 65.8239 8.29427L67.9998 3.11083L70.1748 8.29427C70.2805 8.54613 70.4529 8.76438 70.6734 8.92546C70.894 9.08654 71.1543 9.18435 71.4264 9.20833L76.9998 9.6902C76.9998 9.6902 76.9998 9.69583 76.9998 9.69677L76.9979 9.69302Z" fill="black"/>
<path opacity="0.2" d="M101.262 13.9505C101.16 14.0408 101.083 14.1573 101.041 14.2875C100.999 14.4177 100.993 14.5569 101.024 14.6902L102.292 20.1783C102.325 20.3217 102.316 20.4717 102.265 20.6097C102.213 20.7477 102.123 20.8677 102.004 20.9545C101.885 21.0414 101.743 21.0913 101.596 21.0982C101.449 21.105 101.303 21.0685 101.177 20.993L96.3864 18.0868C96.27 18.016 96.1364 17.9786 96.0002 17.9786C95.8639 17.9786 95.7303 18.016 95.6139 18.0868L90.8233 20.993C90.6969 21.0685 90.5511 21.105 90.404 21.0982C90.257 21.0913 90.1152 21.0414 89.9964 20.9545C89.8775 20.8677 89.7869 20.7477 89.7357 20.6097C89.6845 20.4717 89.6751 20.3217 89.7086 20.1783L90.9761 14.6902C91.0069 14.5569 91.001 14.4177 90.9591 14.2875C90.9172 14.1573 90.8408 14.0408 90.738 13.9505L86.5089 10.2615C86.3959 10.1654 86.3138 10.0379 86.2732 9.89517C86.2326 9.75245 86.2353 9.60089 86.2809 9.45968C86.3264 9.31847 86.4129 9.19394 86.5292 9.10186C86.6456 9.00978 86.7866 8.95429 86.9345 8.9424L92.5089 8.46053C92.6449 8.44841 92.775 8.3994 92.8852 8.31878C92.9954 8.23816 93.0815 8.12898 93.1342 8.00303L95.312 2.81303C95.3702 2.67884 95.4663 2.5646 95.5886 2.48434C95.7109 2.40409 95.8539 2.36133 96.0002 2.36133C96.1464 2.36133 96.2895 2.40409 96.4117 2.48434C96.534 2.5646 96.6301 2.67884 96.6883 2.81303L98.8661 8.00303C98.9188 8.12898 99.0049 8.23816 99.1151 8.31878C99.2253 8.3994 99.3554 8.44841 99.4914 8.46053L105.066 8.9424C105.214 8.95429 105.355 9.00978 105.471 9.10186C105.587 9.19394 105.674 9.31847 105.719 9.45968C105.765 9.60089 105.768 9.75245 105.727 9.89517C105.686 10.0379 105.604 10.1654 105.491 10.2615L101.262 13.9505Z" fill="black"/>
<path d="M106.425 9.22427C106.334 8.94431 106.163 8.69727 105.933 8.5139C105.702 8.33053 105.423 8.21894 105.13 8.19302L99.5623 7.71302L97.3798 2.52302C97.2662 2.25069 97.0745 2.01807 96.829 1.85445C96.5834 1.69082 96.2949 1.60352 95.9998 1.60352C95.7047 1.60352 95.4163 1.69082 95.1707 1.85445C94.9251 2.01807 94.7335 2.25069 94.6198 2.52302L92.4439 7.71302L86.8695 8.19583C86.5752 8.22056 86.2947 8.33165 86.0632 8.51516C85.8318 8.69866 85.6596 8.94642 85.5684 9.22737C85.4772 9.50831 85.471 9.80993 85.5505 10.0944C85.63 10.3789 85.7918 10.6335 86.0155 10.8265L90.2445 14.5221L88.977 20.0102C88.91 20.2974 88.9291 20.598 89.032 20.8744C89.1349 21.1508 89.3169 21.3907 89.5554 21.5642C89.7939 21.7376 90.0783 21.8369 90.3729 21.8497C90.6676 21.8624 90.9594 21.7881 91.212 21.6358L95.9933 18.7296L100.785 21.6358C101.037 21.7881 101.329 21.8624 101.624 21.8497C101.919 21.8369 102.203 21.7376 102.441 21.5642C102.68 21.3907 102.862 21.1508 102.965 20.8744C103.068 20.598 103.087 20.2974 103.02 20.0102L101.753 14.5165L105.981 10.8265C106.205 10.6329 106.366 10.3775 106.445 10.0924C106.524 9.80733 106.517 9.50529 106.425 9.22427ZM104.998 9.69302L100.77 13.383C100.564 13.562 100.411 13.7937 100.327 14.0532C100.243 14.3128 100.232 14.5902 100.294 14.8558L101.564 20.3533L96.7761 17.4471C96.5425 17.3048 96.2743 17.2296 96.0008 17.2296C95.7273 17.2296 95.459 17.3048 95.2255 17.4471L90.4442 20.3533L91.7061 14.8596C91.7681 14.594 91.7565 14.3165 91.6726 14.057C91.5887 13.7975 91.4356 13.5658 91.2298 13.3868L86.9998 9.69864C86.9995 9.69584 86.9995 9.69301 86.9998 9.6902L92.5723 9.20833C92.8444 9.18435 93.1047 9.08654 93.3253 8.92546C93.5459 8.76438 93.7183 8.54613 93.8239 8.29427L95.9998 3.11083L98.1748 8.29427C98.2805 8.54613 98.4529 8.76438 98.6734 8.92546C98.894 9.08654 99.1543 9.18435 99.4264 9.20833L105 9.6902C105 9.6902 105 9.69583 105 9.69677L104.998 9.69302Z" fill="black"/>
<path opacity="0.2" d="M129.262 13.9505C129.16 14.0408 129.083 14.1573 129.041 14.2875C128.999 14.4177 128.993 14.5569 129.024 14.6902L130.292 20.1783C130.325 20.3217 130.316 20.4717 130.265 20.6097C130.213 20.7477 130.123 20.8677 130.004 20.9545C129.885 21.0414 129.743 21.0913 129.596 21.0982C129.449 21.105 129.303 21.0685 129.177 20.993L124.386 18.0868C124.27 18.016 124.136 17.9786 124 17.9786C123.864 17.9786 123.73 18.016 123.614 18.0868L118.823 20.993C118.697 21.0685 118.551 21.105 118.404 21.0982C118.257 21.0913 118.115 21.0414 117.996 20.9545C117.878 20.8677 117.787 20.7477 117.736 20.6097C117.685 20.4717 117.675 20.3217 117.709 20.1783L118.976 14.6902C119.007 14.5569 119.001 14.4177 118.959 14.2875C118.917 14.1573 118.841 14.0408 118.738 13.9505L114.509 10.2615C114.396 10.1654 114.314 10.0379 114.273 9.89517C114.233 9.75245 114.235 9.60089 114.281 9.45968C114.326 9.31847 114.413 9.19394 114.529 9.10186C114.646 9.00978 114.787 8.95429 114.935 8.9424L120.509 8.46053C120.645 8.44841 120.775 8.3994 120.885 8.31878C120.995 8.23816 121.082 8.12898 121.134 8.00303L123.312 2.81303C123.37 2.67884 123.466 2.5646 123.589 2.48434C123.711 2.40409 123.854 2.36133 124 2.36133C124.146 2.36133 124.289 2.40409 124.412 2.48434C124.534 2.5646 124.63 2.67884 124.688 2.81303L126.866 8.00303C126.919 8.12898 127.005 8.23816 127.115 8.31878C127.225 8.3994 127.355 8.44841 127.491 8.46053L133.066 8.9424C133.214 8.95429 133.355 9.00978 133.471 9.10186C133.587 9.19394 133.674 9.31847 133.719 9.45968C133.765 9.60089 133.768 9.75245 133.727 9.89517C133.686 10.0379 133.604 10.1654 133.491 10.2615L129.262 13.9505Z" fill="black"/>
<path d="M134.425 9.22427C134.334 8.94431 134.163 8.69727 133.933 8.5139C133.702 8.33053 133.423 8.21894 133.13 8.19302L127.562 7.71302L125.38 2.52302C125.266 2.25069 125.075 2.01807 124.829 1.85445C124.583 1.69082 124.295 1.60352 124 1.60352C123.705 1.60352 123.416 1.69082 123.171 1.85445C122.925 2.01807 122.733 2.25069 122.62 2.52302L120.444 7.71302L114.87 8.19583C114.575 8.22056 114.295 8.33165 114.063 8.51516C113.832 8.69866 113.66 8.94642 113.568 9.22737C113.477 9.50831 113.471 9.80993 113.551 10.0944C113.63 10.3789 113.792 10.6335 114.015 10.8265L118.245 14.5221L116.977 20.0102C116.91 20.2974 116.929 20.598 117.032 20.8744C117.135 21.1508 117.317 21.3907 117.555 21.5642C117.794 21.7376 118.078 21.8369 118.373 21.8497C118.668 21.8624 118.959 21.7881 119.212 21.6358L123.993 18.7296L128.785 21.6358C129.037 21.7881 129.329 21.8624 129.624 21.8497C129.919 21.8369 130.203 21.7376 130.441 21.5642C130.68 21.3907 130.862 21.1508 130.965 20.8744C131.068 20.598 131.087 20.2974 131.02 20.0102L129.753 14.5165L133.981 10.8265C134.205 10.6329 134.366 10.3775 134.445 10.0924C134.524 9.80733 134.517 9.50529 134.425 9.22427ZM132.998 9.69302L128.77 13.383C128.564 13.562 128.411 13.7937 128.327 14.0532C128.243 14.3128 128.232 14.5902 128.294 14.8558L129.564 20.3533L124.776 17.4471C124.542 17.3048 124.274 17.2296 124.001 17.2296C123.727 17.2296 123.459 17.3048 123.225 17.4471L118.444 20.3533L119.706 14.8596C119.768 14.594 119.757 14.3165 119.673 14.057C119.589 13.7975 119.436 13.5658 119.23 13.3868L115 9.69864C114.999 9.69584 114.999 9.69301 115 9.6902L120.572 9.20833C120.844 9.18435 121.105 9.08654 121.325 8.92546C121.546 8.76438 121.718 8.54613 121.824 8.29427L124 3.11083L126.175 8.29427C126.28 8.54613 126.453 8.76438 126.673 8.92546C126.894 9.08654 127.154 9.18435 127.426 9.20833L133 9.6902C133 9.6902 133 9.69583 133 9.69677L132.998 9.69302Z" fill="black"/>
</svg>
