<svg width="33" height="33" viewBox="0 0 33 33" fill="none" xmlns="http://www.w3.org/2000/svg">
<path opacity="0.2" d="M28.5 7.08496L16.5 18.085L4.5 7.08496H28.5Z" fill="#BF996F"/>
<path d="M28.5 6.08496H4.5C4.23478 6.08496 3.98043 6.19032 3.79289 6.37785C3.60536 6.56539 3.5 6.81974 3.5 7.08496V24.085C3.5 24.6154 3.71071 25.1241 4.08579 25.4992C4.46086 25.8742 4.96957 26.085 5.5 26.085H27.5C28.0304 26.085 28.5391 25.8742 28.9142 25.4992C29.2893 25.1241 29.5 24.6154 29.5 24.085V7.08496C29.5 6.81974 29.3946 6.56539 29.2071 6.37785C29.0196 6.19032 28.7652 6.08496 28.5 6.08496ZM25.9287 8.08496L16.5 16.7287L7.07125 8.08496H25.9287ZM27.5 24.085H5.5V9.35871L15.8237 18.8225C16.0082 18.9918 16.2496 19.0858 16.5 19.0858C16.7504 19.0858 16.9918 18.9918 17.1763 18.8225L27.5 9.35871V24.085Z" fill="#BF996F"/>
</svg>
