<svg width="33" height="33" viewBox="0 0 33 33" fill="none" xmlns="http://www.w3.org/2000/svg">
<path opacity="0.2" d="M16.5 3.08496C13.8478 3.08496 11.3043 4.13853 9.42893 6.01389C7.55357 7.88926 6.5 10.4328 6.5 13.085C6.5 22.085 16.5 29.085 16.5 29.085C16.5 29.085 26.5 22.085 26.5 13.085C26.5 10.4328 25.4464 7.88926 23.5711 6.01389C21.6957 4.13853 19.1522 3.08496 16.5 3.08496ZM16.5 17.085C15.7089 17.085 14.9355 16.8504 14.2777 16.4108C13.6199 15.9713 13.1072 15.3466 12.8045 14.6157C12.5017 13.8848 12.4225 13.0805 12.5769 12.3046C12.7312 11.5287 13.1122 10.8159 13.6716 10.2565C14.231 9.69712 14.9437 9.31616 15.7196 9.16182C16.4956 9.00748 17.2998 9.08669 18.0307 9.38944C18.7616 9.69219 19.3864 10.2049 19.8259 10.8627C20.2654 11.5205 20.5 12.2938 20.5 13.085C20.5 14.1458 20.0786 15.1632 19.3284 15.9134C18.5783 16.6635 17.5609 17.085 16.5 17.085Z" fill="#BF996F"/>
<path d="M16.5 8.08496C15.5111 8.08496 14.5444 8.37821 13.7221 8.92761C12.8999 9.47702 12.259 10.2579 11.8806 11.1715C11.5022 12.0852 11.4031 13.0905 11.5961 14.0604C11.789 15.0303 12.2652 15.9212 12.9645 16.6205C13.6637 17.3198 14.5546 17.796 15.5245 17.9889C16.4945 18.1818 17.4998 18.0828 18.4134 17.7044C19.327 17.3259 20.1079 16.6851 20.6573 15.8628C21.2068 15.0406 21.5 14.0739 21.5 13.085C21.5 11.7589 20.9732 10.4871 20.0355 9.54943C19.0979 8.61174 17.8261 8.08496 16.5 8.08496ZM16.5 16.085C15.9067 16.085 15.3266 15.909 14.8333 15.5794C14.3399 15.2497 13.9554 14.7812 13.7284 14.233C13.5013 13.6848 13.4419 13.0816 13.5576 12.4997C13.6734 11.9177 13.9591 11.3832 14.3787 10.9636C14.7982 10.5441 15.3328 10.2584 15.9147 10.1426C16.4967 10.0268 17.0999 10.0863 17.6481 10.3133C18.1962 10.5404 18.6648 10.9249 18.9944 11.4183C19.3241 11.9116 19.5 12.4916 19.5 13.085C19.5 13.8806 19.1839 14.6437 18.6213 15.2063C18.0587 15.7689 17.2956 16.085 16.5 16.085ZM16.5 2.08496C13.5836 2.08827 10.7877 3.24826 8.72548 5.31044C6.6633 7.37262 5.50331 10.1686 5.5 13.085C5.5 17.01 7.31375 21.17 10.75 25.1162C12.294 26.8994 14.0318 28.5051 15.9312 29.9037C16.0994 30.0215 16.2997 30.0847 16.505 30.0847C16.7103 30.0847 16.9106 30.0215 17.0788 29.9037C18.9747 28.5046 20.7091 26.8989 22.25 25.1162C25.6812 21.17 27.5 17.01 27.5 13.085C27.4967 10.1686 26.3367 7.37262 24.2745 5.31044C22.2123 3.24826 19.4164 2.08827 16.5 2.08496ZM16.5 27.835C14.4338 26.21 7.5 20.2412 7.5 13.085C7.5 10.698 8.44821 8.40883 10.136 6.721C11.8239 5.03317 14.1131 4.08496 16.5 4.08496C18.8869 4.08496 21.1761 5.03317 22.864 6.721C24.5518 8.40883 25.5 10.698 25.5 13.085C25.5 20.2387 18.5662 26.21 16.5 27.835Z" fill="#BF996F"/>
</svg>
