<svg width="33" height="33" viewBox="0 0 33 33" fill="none" xmlns="http://www.w3.org/2000/svg">
<path opacity="0.2" d="M28.4925 21.8454C28.2983 23.2967 27.5836 24.6281 26.4813 25.592C25.3791 26.5558 23.9642 27.0865 22.5 27.0854C17.9913 27.0854 13.6673 25.2944 10.4792 22.1062C7.29107 18.9181 5.5 14.5941 5.5 10.0854C5.49888 8.62118 6.0296 7.20636 6.99345 6.10409C7.95731 5.00182 9.28869 4.28712 10.74 4.09292C10.9545 4.06743 11.1716 4.11211 11.3586 4.22027C11.5456 4.32843 11.6926 4.49426 11.7775 4.69292L14.4188 10.5929C14.4836 10.7445 14.5101 10.9097 14.4957 11.0739C14.4813 11.2381 14.4265 11.3962 14.3363 11.5342L11.665 14.7104C11.5702 14.8534 11.5142 15.0185 11.5024 15.1896C11.4906 15.3608 11.5233 15.532 11.5975 15.6867C12.6313 17.8029 14.8188 19.9642 16.9413 20.9879C17.0967 21.0618 17.2688 21.0938 17.4404 21.0809C17.612 21.0679 17.7773 21.0105 17.92 20.9142L21.045 18.2517C21.1835 18.1595 21.3428 18.1034 21.5084 18.0883C21.6741 18.0732 21.8409 18.0998 21.9938 18.1654L27.8888 20.8067C28.0883 20.891 28.2551 21.0379 28.364 21.2253C28.4729 21.4126 28.518 21.6302 28.4925 21.8454Z" fill="#BF996F"/>
<path d="M28.2963 19.8922L22.4075 17.2535L22.3913 17.246C22.0856 17.1152 21.7521 17.0627 21.421 17.0933C21.0899 17.1238 20.7716 17.2365 20.495 17.421C20.4624 17.4425 20.4311 17.4658 20.4013 17.491L17.3588 20.0847C15.4313 19.1485 13.4413 17.1735 12.505 15.271L15.1025 12.1822C15.1275 12.151 15.1513 12.1197 15.1738 12.086C15.3543 11.8101 15.4638 11.4939 15.4926 11.1654C15.5214 10.837 15.4686 10.5065 15.3388 10.2035V10.1885L12.6925 4.28971C12.5209 3.89379 12.2259 3.56398 11.8515 3.34951C11.4771 3.13504 11.0433 3.04741 10.615 3.09971C8.92122 3.32259 7.36649 4.15442 6.24118 5.43983C5.11587 6.72524 4.49695 8.37632 4.50001 10.0847C4.50001 20.0097 12.575 28.0847 22.5 28.0847C24.2084 28.0878 25.8595 27.4688 27.1449 26.3435C28.4303 25.2182 29.2621 23.6635 29.485 21.9697C29.5374 21.5415 29.45 21.1079 29.2357 20.7335C29.0215 20.3591 28.6919 20.064 28.2963 19.8922ZM22.5 26.0847C18.258 26.0801 14.191 24.3929 11.1914 21.3933C8.19184 18.3937 6.50464 14.3267 6.50001 10.0847C6.49531 8.86407 6.93507 7.68345 7.73718 6.76334C8.53929 5.84323 9.64889 5.24654 10.8588 5.08471C10.8583 5.0897 10.8583 5.09472 10.8588 5.09971L13.4838 10.9747L10.9 14.0672C10.8738 14.0974 10.85 14.1296 10.8288 14.1635C10.6407 14.4521 10.5303 14.7845 10.5084 15.1283C10.4865 15.4721 10.5538 15.8158 10.7038 16.126C11.8363 18.4422 14.17 20.7585 16.5113 21.8897C16.8237 22.0383 17.1694 22.1032 17.5144 22.0783C17.8595 22.0533 18.1922 21.9392 18.48 21.7472C18.5121 21.7256 18.543 21.7022 18.5725 21.6772L21.6113 19.0847L27.4863 21.716C27.4863 21.716 27.4963 21.716 27.5 21.716C27.3402 22.9275 26.7444 24.0394 25.8241 24.8435C24.9038 25.6476 23.7221 26.0888 22.5 26.0847Z" fill="#BF996F"/>
</svg>
